%FSLAX34Y34*%
%MOMM*%
%LNSILK_BOTTOM_*%
G71*
G01*
%ADD10C, 0.16*%
%LPD*%
G54D10*
X376670Y607553D02*
X376670Y619998D01*
X373559Y619998D01*
X372315Y619220D01*
X371693Y617664D01*
X371693Y609887D01*
X372315Y608331D01*
X373559Y607553D01*
X376670Y607553D01*
G54D10*
X364537Y607553D02*
X364537Y619998D01*
X368270Y612220D01*
X368270Y610664D01*
X363293Y610664D01*
G54D10*
X387298Y582153D02*
X391654Y582153D01*
X391654Y594598D01*
X387298Y594598D01*
G54D10*
X391654Y588376D02*
X387298Y588376D01*
G54D10*
X383876Y582153D02*
X383876Y594598D01*
X379520Y594598D01*
G54D10*
X383876Y588376D02*
X379520Y588376D01*
G54D10*
X376098Y582153D02*
X376098Y594598D01*
X371742Y594598D01*
G54D10*
X376098Y588376D02*
X371742Y588376D01*
G54D10*
X368320Y594598D02*
X363342Y594598D01*
X363964Y593042D01*
X365209Y590709D01*
X366453Y587598D01*
X367075Y585264D01*
X367075Y582153D01*
G54D10*
X382064Y639176D02*
X380198Y637620D01*
X379575Y636064D01*
X379575Y632953D01*
G54D10*
X384553Y632953D02*
X384553Y645398D01*
X381442Y645398D01*
X380198Y644620D01*
X379575Y643064D01*
X379575Y641509D01*
X380198Y639953D01*
X381442Y639176D01*
X384553Y639176D01*
G54D10*
X371798Y632953D02*
X376153Y632953D01*
X376153Y645398D01*
X371798Y645398D01*
G54D10*
X376153Y639176D02*
X371798Y639176D01*
G54D10*
X368375Y635287D02*
X367753Y633731D01*
X366508Y632953D01*
X365264Y632953D01*
X364020Y633731D01*
X363397Y635287D01*
X363397Y636842D01*
X364020Y638398D01*
X365264Y639176D01*
X366508Y639176D01*
X367753Y639953D01*
X368375Y641509D01*
X368375Y643064D01*
X367753Y644620D01*
X366508Y645398D01*
X365264Y645398D01*
X364020Y644620D01*
X363397Y643064D01*
G54D10*
X452578Y582153D02*
X452578Y594598D01*
X449466Y594598D01*
X448222Y593820D01*
X447600Y592264D01*
X447600Y584487D01*
X448222Y582931D01*
X449466Y582153D01*
X452578Y582153D01*
G54D10*
X439200Y582153D02*
X444178Y582153D01*
X444178Y582931D01*
X443555Y584487D01*
X439822Y589153D01*
X439200Y590709D01*
X439200Y592264D01*
X439822Y593820D01*
X441066Y594598D01*
X442311Y594598D01*
X443555Y593820D01*
X444178Y592264D01*
G54D10*
X460978Y683753D02*
X460978Y696198D01*
G54D10*
X460978Y687642D02*
X456000Y696198D01*
G54D10*
X459112Y689976D02*
X456000Y683753D01*
G54D10*
X452578Y683753D02*
X452578Y696198D01*
X449467Y696198D01*
X448223Y695420D01*
X447600Y693864D01*
X447600Y686087D01*
X448223Y684531D01*
X449467Y683753D01*
X452578Y683753D01*
G54D10*
X439200Y693864D02*
X439823Y695420D01*
X441067Y696198D01*
X442312Y696198D01*
X443556Y695420D01*
X444178Y693864D01*
X444178Y689976D01*
X444178Y689198D01*
X442312Y690753D01*
X441067Y690753D01*
X439823Y689976D01*
X439200Y688420D01*
X439200Y686087D01*
X439823Y684531D01*
X441067Y683753D01*
X442312Y683753D01*
X443556Y684531D01*
X444178Y686087D01*
X444178Y689976D01*
G54D10*
X690306Y417053D02*
X690306Y429498D01*
X687194Y429498D01*
X685950Y428720D01*
X685328Y427164D01*
X685328Y419387D01*
X685950Y417831D01*
X687194Y417053D01*
X690306Y417053D01*
G54D10*
X676928Y417053D02*
X681906Y417053D01*
X681906Y417831D01*
X681283Y419387D01*
X677550Y424053D01*
X676928Y425609D01*
X676928Y427164D01*
X677550Y428720D01*
X678794Y429498D01*
X680039Y429498D01*
X681283Y428720D01*
X681906Y427164D01*
G54D10*
X690995Y467853D02*
X690995Y480298D01*
X687884Y480298D01*
X686640Y479520D01*
X686018Y477964D01*
X686018Y470187D01*
X686640Y468631D01*
X687884Y467853D01*
X690995Y467853D01*
G54D10*
X678862Y467853D02*
X678862Y480298D01*
X682595Y472520D01*
X682595Y470964D01*
X677618Y470964D01*
G54D10*
X936573Y664703D02*
X940929Y664703D01*
X940929Y677148D01*
X936573Y677148D01*
G54D10*
X940929Y670926D02*
X936573Y670926D01*
G54D10*
X933151Y664703D02*
X933151Y677148D01*
X928795Y677148D01*
G54D10*
X933151Y670926D02*
X928795Y670926D01*
G54D10*
X925373Y664703D02*
X925373Y677148D01*
X921017Y677148D01*
G54D10*
X925373Y670926D02*
X921017Y670926D01*
G54D10*
X917595Y677148D02*
X912617Y677148D01*
X913239Y675592D01*
X914484Y673259D01*
X915728Y670148D01*
X916350Y667814D01*
X916350Y664703D01*
G54D10*
X816642Y442722D02*
X814776Y441167D01*
X814154Y439611D01*
X814154Y436500D01*
G54D10*
X819131Y436500D02*
X819131Y448945D01*
X816020Y448945D01*
X814776Y448167D01*
X814154Y446611D01*
X814154Y445056D01*
X814776Y443500D01*
X816020Y442722D01*
X819131Y442722D01*
G54D10*
X806376Y436500D02*
X810731Y436500D01*
X810731Y448945D01*
X806376Y448945D01*
G54D10*
X810731Y442722D02*
X806376Y442722D01*
G54D10*
X802953Y438834D02*
X802331Y437278D01*
X801087Y436500D01*
X799842Y436500D01*
X798598Y437278D01*
X797976Y438834D01*
X797976Y440389D01*
X798598Y441945D01*
X799842Y442722D01*
X801087Y442722D01*
X802331Y443500D01*
X802953Y445056D01*
X802953Y446611D01*
X802331Y448167D01*
X801087Y448945D01*
X799842Y448945D01*
X798598Y448167D01*
X797976Y446611D01*
G54D10*
X1963148Y1172703D02*
X1963148Y1185148D01*
G54D10*
X1963148Y1176592D02*
X1958172Y1185148D01*
G54D10*
X1961282Y1178926D02*
X1958172Y1172703D01*
G54D10*
X1954749Y1172703D02*
X1954749Y1185148D01*
X1951638Y1185148D01*
X1950394Y1184370D01*
X1949772Y1182814D01*
X1949772Y1175037D01*
X1950394Y1173481D01*
X1951638Y1172703D01*
X1954749Y1172703D01*
G54D10*
X1941371Y1182814D02*
X1941994Y1184370D01*
X1943238Y1185148D01*
X1944482Y1185148D01*
X1945726Y1184370D01*
X1946349Y1182814D01*
X1946349Y1178926D01*
X1946349Y1178148D01*
X1944482Y1179703D01*
X1943238Y1179703D01*
X1941994Y1178926D01*
X1941371Y1177370D01*
X1941371Y1175037D01*
X1941994Y1173481D01*
X1943238Y1172703D01*
X1944482Y1172703D01*
X1945726Y1173481D01*
X1946349Y1175037D01*
X1946349Y1178926D01*
G54D10*
X386289Y727117D02*
X384733Y728984D01*
X383177Y729606D01*
X380066Y729606D01*
G54D10*
X380066Y724628D02*
X392511Y724628D01*
X392511Y727739D01*
X391733Y728984D01*
X390177Y729606D01*
X388622Y729606D01*
X387066Y728984D01*
X386289Y727739D01*
X386289Y724628D01*
G54D10*
X392511Y733028D02*
X380066Y739250D01*
G54D10*
X380066Y733028D02*
X392511Y739250D01*
G54D10*
X387844Y742672D02*
X392511Y745783D01*
X380066Y745783D01*
G54D10*
X380066Y749205D02*
X380066Y749205D01*
G54D10*
X380066Y752627D02*
X380066Y752627D01*
G54D10*
X390177Y756049D02*
X391733Y756672D01*
X392511Y757916D01*
X392511Y759160D01*
X391733Y760405D01*
X390177Y761027D01*
X388622Y761027D01*
X387066Y760405D01*
X386289Y759160D01*
X385511Y760405D01*
X383955Y761027D01*
X382400Y761027D01*
X380844Y760405D01*
X380066Y759160D01*
X380066Y757916D01*
X380844Y756672D01*
X382400Y756049D01*
G54D10*
X385511Y767995D02*
X385511Y772973D01*
G54D10*
X387844Y779941D02*
X392511Y783052D01*
X380066Y783052D01*
G54D10*
X390177Y791452D02*
X382400Y791452D01*
X380844Y790830D01*
X380066Y789586D01*
X380066Y788341D01*
X380844Y787096D01*
X382400Y786474D01*
X390177Y786474D01*
X391733Y787096D01*
X392511Y788341D01*
X392511Y789585D01*
X391733Y790830D01*
X390177Y791452D01*
G54D10*
X390177Y799852D02*
X382400Y799852D01*
X380844Y799230D01*
X380066Y797985D01*
X380066Y796741D01*
X380844Y795496D01*
X382400Y794874D01*
X390177Y794874D01*
X391733Y795496D01*
X392511Y796741D01*
X392511Y797985D01*
X391733Y799230D01*
X390177Y799852D01*
G54D10*
X380066Y803274D02*
X392511Y803274D01*
G54D10*
X383955Y803274D02*
X392511Y808252D01*
G54D10*
X386289Y805141D02*
X380066Y808252D01*
G54D10*
X369620Y727117D02*
X368064Y728984D01*
X366509Y729606D01*
X363398Y729606D01*
G54D10*
X363398Y724628D02*
X375842Y724628D01*
X375842Y727739D01*
X375064Y728984D01*
X373509Y729606D01*
X371953Y729606D01*
X370398Y728984D01*
X369620Y727739D01*
X369620Y724628D01*
G54D10*
X375842Y733028D02*
X363398Y739250D01*
G54D10*
X363398Y733028D02*
X375842Y739250D01*
G54D10*
X363398Y746406D02*
X375842Y746406D01*
X368064Y742672D01*
X366509Y742672D01*
X366509Y747650D01*
G54D10*
X363398Y751072D02*
X363398Y751072D01*
G54D10*
X363398Y754494D02*
X363398Y754494D01*
G54D10*
X375842Y762894D02*
X375842Y757916D01*
X370398Y757916D01*
X370398Y758538D01*
X371175Y759783D01*
X371175Y761027D01*
X370398Y762272D01*
X368842Y762894D01*
X365731Y762894D01*
X364175Y762272D01*
X363398Y761027D01*
X363398Y759783D01*
X364175Y758538D01*
X365731Y757916D01*
G54D10*
X368842Y769862D02*
X368842Y774840D01*
G54D10*
X373509Y781808D02*
X375064Y782430D01*
X375842Y783675D01*
X375842Y784920D01*
X375064Y786164D01*
X373509Y786786D01*
X371953Y786786D01*
X370398Y786164D01*
X369620Y784919D01*
X368842Y786164D01*
X367286Y786786D01*
X365731Y786786D01*
X364175Y786164D01*
X363398Y784919D01*
X363398Y783675D01*
X364175Y782430D01*
X365731Y781808D01*
G54D10*
X373509Y790208D02*
X375064Y790831D01*
X375842Y792075D01*
X375842Y793319D01*
X375064Y794564D01*
X373509Y795186D01*
X371953Y795186D01*
X370398Y794564D01*
X369620Y793319D01*
X368842Y794564D01*
X367286Y795186D01*
X365731Y795186D01*
X364175Y794564D01*
X363398Y793320D01*
X363398Y792075D01*
X364175Y790830D01*
X365731Y790208D01*
G54D10*
X373509Y803586D02*
X365731Y803586D01*
X364175Y802964D01*
X363398Y801719D01*
X363398Y800475D01*
X364175Y799231D01*
X365731Y798608D01*
X373509Y798608D01*
X375064Y799230D01*
X375842Y800475D01*
X375842Y801719D01*
X375064Y802964D01*
X373509Y803586D01*
G54D10*
X349062Y729606D02*
X347507Y728984D01*
X346729Y727739D01*
X346729Y726495D01*
X347507Y725250D01*
X349062Y724628D01*
X356840Y724628D01*
X358395Y725250D01*
X359173Y726495D01*
X359173Y727739D01*
X358395Y728984D01*
X356840Y729606D01*
G54D10*
X359173Y733028D02*
X346729Y739250D01*
G54D10*
X346729Y733028D02*
X359173Y739250D01*
G54D10*
X354507Y742672D02*
X359173Y745783D01*
X346729Y745783D01*
G54D10*
X352173Y752751D02*
X352173Y757729D01*
G54D10*
X354507Y764697D02*
X359173Y767808D01*
X346729Y767808D01*
G54D10*
X356840Y776208D02*
X349062Y776208D01*
X347507Y775586D01*
X346729Y774341D01*
X346729Y773097D01*
X347507Y771852D01*
X349062Y771230D01*
X356840Y771230D01*
X358395Y771852D01*
X359173Y773097D01*
X359173Y774341D01*
X358395Y775586D01*
X356840Y776208D01*
G54D10*
X356840Y784608D02*
X349062Y784608D01*
X347507Y783986D01*
X346729Y782741D01*
X346729Y781497D01*
X347507Y780252D01*
X349062Y779630D01*
X356840Y779630D01*
X358395Y780252D01*
X359173Y781497D01*
X359173Y782741D01*
X358395Y783986D01*
X356840Y784608D01*
G54D10*
X346729Y788030D02*
X353729Y788030D01*
G54D10*
X352173Y788030D02*
X353262Y788652D01*
X353729Y789897D01*
X353262Y791141D01*
X352173Y791764D01*
X346729Y791764D01*
G54D10*
X346729Y795185D02*
X359173Y795185D01*
X359173Y799541D01*
G54D10*
X352951Y795185D02*
X352951Y799541D01*
G54D10*
X690306Y378953D02*
X690306Y391398D01*
X687194Y391398D01*
X685950Y390620D01*
X685328Y389064D01*
X685328Y381287D01*
X685950Y379731D01*
X687194Y378953D01*
X690306Y378953D01*
G54D10*
X681906Y389064D02*
X681283Y390620D01*
X680039Y391398D01*
X678794Y391398D01*
X677550Y390620D01*
X676928Y389064D01*
X676928Y387509D01*
X677550Y385953D01*
X678794Y385176D01*
X677550Y384398D01*
X676928Y382842D01*
X676928Y381287D01*
X677550Y379731D01*
X678794Y378953D01*
X680039Y378953D01*
X681283Y379731D01*
X681906Y381287D01*
G54D10*
X828259Y474345D02*
X828259Y461900D01*
X825148Y469678D01*
X822037Y461900D01*
X822037Y474345D01*
G54D10*
X816126Y468122D02*
X814260Y466567D01*
X813638Y465011D01*
X813638Y461900D01*
G54D10*
X818615Y461900D02*
X818615Y474345D01*
X815504Y474345D01*
X814260Y473567D01*
X813638Y472011D01*
X813638Y470456D01*
X814260Y468900D01*
X815504Y468122D01*
X818615Y468122D01*
G54D10*
X810215Y461900D02*
X810215Y474345D01*
X805860Y474345D01*
G54D10*
X810215Y468122D02*
X805860Y468122D01*
G54D10*
X798082Y461900D02*
X802437Y461900D01*
X802437Y474345D01*
X798082Y474345D01*
G54D10*
X802437Y468122D02*
X798082Y468122D01*
M02*
