%FSLAX34Y34*%
%MOMM*%
%LNSOLDERMASK_TOP*%
G71*
G01*
%ADD10C, 0.50*%
%ADD11C, 1.72*%
%ADD12C, 4.70*%
%ADD13C, 1.70*%
%ADD14C, 6.20*%
%ADD15C, 2.40*%
%ADD16C, 3.20*%
%ADD17C, 0.47*%
%LPD*%
G54D10*
X378079Y1130376D02*
X381254Y1136726D01*
X387604Y1136726D01*
X393497Y1148512D01*
X397129Y1155776D01*
X390779Y1155776D01*
X393497Y1148512D01*
X400304Y1130376D01*
X403479Y1130376D01*
G54D10*
X376479Y1171652D02*
X373304Y1171652D01*
X371322Y1173632D01*
X370129Y1174826D01*
X370129Y1184351D01*
X373304Y1187526D01*
X376479Y1187526D01*
X378460Y1185545D01*
X379654Y1184351D01*
X379654Y1174826D01*
X376479Y1171652D01*
G54D10*
X370129Y1171652D02*
X371322Y1173632D01*
X378460Y1185545D01*
X379654Y1187526D01*
G54D10*
X363779Y1206576D02*
X370129Y1206576D01*
X373304Y1209751D01*
X373304Y1216101D01*
X370129Y1219276D01*
X363779Y1219276D01*
X363779Y1206576D01*
X363779Y1197052D01*
G54D10*
X389179Y1219276D02*
X379654Y1219276D01*
X379654Y1209751D01*
X379654Y1197052D01*
X389179Y1197052D01*
G54D10*
X357429Y1184351D02*
X360604Y1187526D01*
X360604Y1171652D01*
X357429Y1171652D01*
G54D10*
X454279Y1155776D02*
X453111Y1153744D01*
X442722Y1135558D01*
X441579Y1136726D01*
X441579Y1152601D01*
X444754Y1155776D01*
X451104Y1155776D01*
X453111Y1153744D01*
X454279Y1152601D01*
X454279Y1136726D01*
X451104Y1133552D01*
X444754Y1133552D01*
X442722Y1135558D01*
X441579Y1133552D01*
G54D10*
X400304Y1130376D02*
X384429Y1130376D01*
X387604Y1136726D01*
X397129Y1136726D01*
G54D10*
X422529Y1152601D02*
X425704Y1155776D01*
X432054Y1155776D01*
X435229Y1152601D01*
X435229Y1146251D01*
X422529Y1133552D01*
X435229Y1133552D01*
G54D10*
X414579Y1219276D02*
X420929Y1219276D01*
X427279Y1219276D01*
G54D10*
X443154Y1178001D02*
X452679Y1178001D01*
X452679Y1181176D01*
X449504Y1184351D01*
X446329Y1184351D01*
X443154Y1181176D01*
X443154Y1178001D01*
X443154Y1174826D01*
X446329Y1171652D01*
X452679Y1171652D01*
G54D10*
X408229Y1171652D02*
X408229Y1178001D01*
X408229Y1187526D01*
X401879Y1178001D01*
X408229Y1178001D01*
X411404Y1178001D01*
G54D10*
X459029Y1171652D02*
X459029Y1181176D01*
X459029Y1184351D01*
G54D10*
X462204Y1216101D02*
X459029Y1219276D01*
X452679Y1219276D01*
X449504Y1216101D01*
X449504Y1200226D01*
X452679Y1197052D01*
X459029Y1197052D01*
X462204Y1200226D01*
X462204Y1206576D01*
X459029Y1206576D01*
G54D10*
X439979Y1203402D02*
X433629Y1203402D01*
G54D10*
X395529Y1197052D02*
X395529Y1219276D01*
X408229Y1197052D01*
X408229Y1219276D01*
G54D10*
X420929Y1219276D02*
X420929Y1197052D01*
G54D10*
X430454Y1197052D02*
X436804Y1219276D01*
X443154Y1197052D01*
G54D10*
X386004Y1184351D02*
X389179Y1187526D01*
X392354Y1187526D01*
X395529Y1184351D01*
X395529Y1181176D01*
X386004Y1171652D01*
X395529Y1171652D01*
G54D10*
X473329Y1155776D02*
X472160Y1153744D01*
X461772Y1135558D01*
X463804Y1133552D01*
X470154Y1133552D01*
X473329Y1136726D01*
X473329Y1152601D01*
X472160Y1153744D01*
X470154Y1155776D01*
X463804Y1155776D01*
X460629Y1152601D01*
X460629Y1136726D01*
X461772Y1135558D01*
X460629Y1133552D01*
G54D10*
X492379Y1152601D02*
X489204Y1155776D01*
X482854Y1155776D01*
X479679Y1152601D01*
X479679Y1143076D01*
X479679Y1136726D01*
X482854Y1133552D01*
X489204Y1133552D01*
X492379Y1136726D01*
X492379Y1143076D01*
X489204Y1146251D01*
X482854Y1146251D01*
X479679Y1143076D01*
G54D10*
X478079Y1219276D02*
X471729Y1219276D01*
X468554Y1216101D01*
X468554Y1200226D01*
X471729Y1197052D01*
X478079Y1197052D01*
X481254Y1200226D01*
X481254Y1216101D01*
X478079Y1219276D01*
G54D10*
X490779Y1171652D02*
X487604Y1171652D01*
X487604Y1174826D01*
X490779Y1174826D01*
X490779Y1171652D01*
G54D10*
X471729Y1184351D02*
X474904Y1187526D01*
X478079Y1187526D01*
X481254Y1184351D01*
X481254Y1181176D01*
X471729Y1171652D01*
X481254Y1171652D01*
G54D10*
X497129Y1184351D02*
X500304Y1187526D01*
X503479Y1187526D01*
X506654Y1184351D01*
X506654Y1181176D01*
X497129Y1171652D01*
X506654Y1171652D01*
G54D10*
X487604Y1197052D02*
X487604Y1219276D01*
X500304Y1197052D01*
X500304Y1219276D01*
G54D10*
X363779Y1171652D02*
X360604Y1171652D01*
G54D10*
X427279Y1187526D02*
X433629Y1171652D01*
X439979Y1187526D01*
G54D10*
X381254Y1136726D02*
X390779Y1155776D01*
X378079Y1155776D01*
G54D10*
X368681Y1145565D02*
X368554Y1143076D01*
X368681Y1140587D01*
X369113Y1138124D01*
X369798Y1135736D01*
X370738Y1133424D01*
X371958Y1131240D01*
X373406Y1129208D01*
X375056Y1127354D01*
X376910Y1125702D01*
X378943Y1124255D01*
X381127Y1123061D01*
X383438Y1122096D01*
X385826Y1121410D01*
X388290Y1120978D01*
X390779Y1120851D01*
X393268Y1120978D01*
X395707Y1121410D01*
X398120Y1122096D01*
X400406Y1123061D01*
X402590Y1124255D01*
X404622Y1125702D01*
X406476Y1127354D01*
X408153Y1129208D01*
X409600Y1131240D01*
X410794Y1133424D01*
X411760Y1135736D01*
X412445Y1138124D01*
X412852Y1140587D01*
X413004Y1143076D01*
X412852Y1145565D01*
X412445Y1148029D01*
X411760Y1150416D01*
X410794Y1152703D01*
X409600Y1154888D01*
X408153Y1156919D01*
X406476Y1158799D01*
X404622Y1160450D01*
X402590Y1161898D01*
X400406Y1163091D01*
X398120Y1164057D01*
X395707Y1164742D01*
X393268Y1165149D01*
X390779Y1165302D01*
X388290Y1165149D01*
X385826Y1164742D01*
X383438Y1164057D01*
X381127Y1163091D01*
X378943Y1161898D01*
X376910Y1160450D01*
X375056Y1158799D01*
X373406Y1156919D01*
X371958Y1154888D01*
X370738Y1152703D01*
X369798Y1150416D01*
X369113Y1148029D01*
X368681Y1145565D01*
G54D10*
X379654Y1209751D02*
X386004Y1209751D01*
G54D10*
X459029Y1181176D02*
X462204Y1184351D01*
X465379Y1184351D01*
X26670Y55245D02*
G54D11*
D03*
X52070Y55245D02*
G54D11*
D03*
X26670Y80645D02*
G54D11*
D03*
X52070Y80645D02*
G54D11*
D03*
X26670Y156845D02*
G54D11*
D03*
X52070Y156845D02*
G54D11*
D03*
X26670Y131445D02*
G54D11*
D03*
X52070Y233045D02*
G54D11*
D03*
X52070Y207645D02*
G54D11*
D03*
X26670Y233045D02*
G54D11*
D03*
X26670Y207645D02*
G54D11*
D03*
X52070Y309245D02*
G54D11*
D03*
X52070Y283845D02*
G54D11*
D03*
X26670Y309245D02*
G54D11*
D03*
X26670Y283845D02*
G54D11*
D03*
X52070Y385445D02*
G54D11*
D03*
X52070Y360045D02*
G54D11*
D03*
X26670Y385445D02*
G54D11*
D03*
X26670Y360045D02*
G54D11*
D03*
X52070Y461645D02*
G54D11*
D03*
X52070Y436245D02*
G54D11*
D03*
X26670Y461645D02*
G54D11*
D03*
X26670Y436245D02*
G54D11*
D03*
X52070Y537845D02*
G54D11*
D03*
X52070Y512445D02*
G54D11*
D03*
X26670Y537845D02*
G54D11*
D03*
X26670Y512445D02*
G54D11*
D03*
X52070Y614045D02*
G54D11*
D03*
X52070Y588645D02*
G54D11*
D03*
X26670Y614045D02*
G54D11*
D03*
X26670Y588645D02*
G54D11*
D03*
X52070Y664845D02*
G54D11*
D03*
X26670Y664845D02*
G54D11*
D03*
X64770Y842650D02*
G54D12*
D03*
X128270Y55245D02*
G54D11*
D03*
X102870Y55245D02*
G54D11*
D03*
X128270Y80645D02*
G54D11*
D03*
X102870Y80645D02*
G54D11*
D03*
X128270Y156845D02*
G54D11*
D03*
X102235Y156845D02*
G54D11*
D03*
X128270Y131445D02*
G54D11*
D03*
X128270Y233045D02*
G54D11*
D03*
X128270Y207645D02*
G54D11*
D03*
X102870Y233045D02*
G54D11*
D03*
X102870Y207645D02*
G54D11*
D03*
X128270Y309245D02*
G54D11*
D03*
X128270Y283845D02*
G54D11*
D03*
X102870Y309245D02*
G54D11*
D03*
X102870Y283845D02*
G54D11*
D03*
X128270Y385445D02*
G54D11*
D03*
X128270Y360045D02*
G54D11*
D03*
X102870Y385445D02*
G54D11*
D03*
X102870Y360045D02*
G54D11*
D03*
X128270Y461645D02*
G54D11*
D03*
X128270Y436245D02*
G54D11*
D03*
X102870Y461645D02*
G54D11*
D03*
X102870Y436245D02*
G54D11*
D03*
X128270Y537845D02*
G54D11*
D03*
X128270Y512445D02*
G54D11*
D03*
X102870Y537845D02*
G54D11*
D03*
X102870Y512445D02*
G54D11*
D03*
X128270Y614045D02*
G54D11*
D03*
X128270Y588645D02*
G54D11*
D03*
X102870Y614045D02*
G54D11*
D03*
X102870Y588645D02*
G54D11*
D03*
X128270Y664845D02*
G54D11*
D03*
X102870Y664845D02*
G54D11*
D03*
X204470Y80645D02*
G54D11*
D03*
X204470Y55245D02*
G54D11*
D03*
X179070Y80645D02*
G54D11*
D03*
X179070Y55245D02*
G54D11*
D03*
X204470Y131445D02*
G54D11*
D03*
X204470Y156845D02*
G54D11*
D03*
X179070Y131445D02*
G54D11*
D03*
X179070Y156845D02*
G54D11*
D03*
X204470Y233045D02*
G54D11*
D03*
X204470Y207645D02*
G54D11*
D03*
X179070Y233045D02*
G54D11*
D03*
X179070Y207645D02*
G54D11*
D03*
X204470Y309245D02*
G54D11*
D03*
X204470Y283845D02*
G54D11*
D03*
X179070Y309245D02*
G54D11*
D03*
X179070Y283845D02*
G54D11*
D03*
X204470Y385445D02*
G54D11*
D03*
X204470Y360045D02*
G54D11*
D03*
X179070Y385445D02*
G54D11*
D03*
X179070Y360045D02*
G54D11*
D03*
X204470Y461645D02*
G54D11*
D03*
X204470Y436245D02*
G54D11*
D03*
X179070Y461645D02*
G54D11*
D03*
X179070Y436245D02*
G54D11*
D03*
X204470Y537845D02*
G54D11*
D03*
X204470Y512445D02*
G54D11*
D03*
X179070Y537845D02*
G54D11*
D03*
X179070Y512445D02*
G54D11*
D03*
X204470Y614045D02*
G54D11*
D03*
X204470Y588645D02*
G54D11*
D03*
X179070Y614045D02*
G54D11*
D03*
X179070Y588645D02*
G54D11*
D03*
X204470Y664845D02*
G54D11*
D03*
X179070Y664845D02*
G54D11*
D03*
X280670Y80645D02*
G54D11*
D03*
X280670Y55245D02*
G54D11*
D03*
X255270Y80645D02*
G54D11*
D03*
X255270Y55245D02*
G54D11*
D03*
X280670Y131445D02*
G54D11*
D03*
X280670Y156845D02*
G54D11*
D03*
X255270Y131445D02*
G54D11*
D03*
X255270Y156845D02*
G54D11*
D03*
X280670Y233045D02*
G54D11*
D03*
X280670Y207645D02*
G54D11*
D03*
X255270Y233045D02*
G54D11*
D03*
X255270Y207645D02*
G54D11*
D03*
X280670Y309245D02*
G54D11*
D03*
X280670Y283845D02*
G54D11*
D03*
X255270Y309245D02*
G54D11*
D03*
X255270Y283845D02*
G54D11*
D03*
X280670Y385445D02*
G54D11*
D03*
X280670Y360045D02*
G54D11*
D03*
X255270Y385445D02*
G54D11*
D03*
X255270Y360045D02*
G54D11*
D03*
X255270Y461645D02*
G54D11*
D03*
X255270Y436245D02*
G54D11*
D03*
X255270Y537845D02*
G54D11*
D03*
X255270Y512445D02*
G54D11*
D03*
X255270Y614045D02*
G54D11*
D03*
X255270Y588645D02*
G54D11*
D03*
X255270Y664845D02*
G54D11*
D03*
X356870Y80645D02*
G54D11*
D03*
X356870Y55245D02*
G54D11*
D03*
X331470Y80645D02*
G54D11*
D03*
X331470Y55245D02*
G54D11*
D03*
X356870Y131445D02*
G54D11*
D03*
X356870Y156845D02*
G54D11*
D03*
X331470Y131445D02*
G54D11*
D03*
X331470Y156845D02*
G54D11*
D03*
X356870Y233045D02*
G54D11*
D03*
X356870Y207645D02*
G54D11*
D03*
X331470Y233045D02*
G54D11*
D03*
X331470Y207645D02*
G54D11*
D03*
X356870Y309245D02*
G54D11*
D03*
X356870Y283845D02*
G54D11*
D03*
X331470Y309245D02*
G54D11*
D03*
X331470Y283845D02*
G54D11*
D03*
X356870Y360045D02*
G54D11*
D03*
X343667Y449919D02*
G54D11*
D03*
X331470Y360045D02*
G54D11*
D03*
X331470Y537845D02*
G54D11*
D03*
X331470Y512445D02*
G54D11*
D03*
X331470Y614045D02*
G54D11*
D03*
X331470Y588645D02*
G54D11*
D03*
X331470Y690245D02*
G54D11*
D03*
X331470Y766445D02*
G54D11*
D03*
X331470Y741045D02*
G54D11*
D03*
X331470Y842645D02*
G54D11*
D03*
X331470Y817245D02*
G54D11*
D03*
X433070Y80645D02*
G54D11*
D03*
X433070Y55245D02*
G54D11*
D03*
X407670Y80645D02*
G54D11*
D03*
X407670Y55245D02*
G54D11*
D03*
X433070Y131445D02*
G54D11*
D03*
X433070Y156845D02*
G54D11*
D03*
X407670Y131445D02*
G54D11*
D03*
X407670Y156845D02*
G54D11*
D03*
X433070Y233045D02*
G54D11*
D03*
X433070Y207645D02*
G54D11*
D03*
X407670Y233045D02*
G54D11*
D03*
X407670Y207645D02*
G54D11*
D03*
X433070Y309245D02*
G54D11*
D03*
X433070Y283845D02*
G54D11*
D03*
X407670Y309245D02*
G54D11*
D03*
X407670Y283845D02*
G54D11*
D03*
X433070Y360045D02*
G54D11*
D03*
X395186Y449633D02*
G54D11*
D03*
X407670Y360045D02*
G54D11*
D03*
X433070Y487045D02*
G54D11*
D03*
X433070Y563245D02*
G54D11*
D03*
X407670Y537845D02*
G54D11*
D03*
X407670Y512445D02*
G54D11*
D03*
X407670Y614045D02*
G54D11*
D03*
X407670Y588645D02*
G54D11*
D03*
X407670Y690245D02*
G54D11*
D03*
X408067Y766048D02*
G54D11*
D03*
X408067Y740648D02*
G54D11*
D03*
X408067Y842645D02*
G54D11*
D03*
X408067Y816848D02*
G54D11*
D03*
X474345Y372745D02*
G54D11*
D03*
X474345Y585470D02*
G54D11*
D03*
X496570Y817245D02*
G54D11*
D03*
X629920Y356870D02*
G54D11*
D03*
X744220Y550545D02*
G54D11*
D03*
X750570Y579120D02*
G54D11*
D03*
X718820Y817245D02*
G54D11*
D03*
X741045Y982345D02*
G54D11*
D03*
X718820Y966470D02*
G54D11*
D03*
X864870Y582295D02*
G54D11*
D03*
X858520Y760095D02*
G54D11*
D03*
X975995Y982345D02*
G54D11*
D03*
X975995Y1033145D02*
G54D11*
D03*
X979170Y1525270D02*
G54D11*
D03*
X1115695Y1293495D02*
G54D11*
D03*
X1134745Y1277620D02*
G54D11*
D03*
X1096645Y1518920D02*
G54D11*
D03*
X1210945Y1518920D02*
G54D11*
D03*
X1328420Y1309370D02*
G54D11*
D03*
X1328420Y1277620D02*
G54D11*
D03*
X1331595Y1518920D02*
G54D11*
D03*
G36*
X1542164Y1140076D02*
X1559176Y1140076D01*
X1559176Y1123064D01*
X1542164Y1123064D01*
X1542164Y1140076D01*
G37*
X1560195Y1309370D02*
G54D11*
D03*
X1560195Y1518920D02*
G54D11*
D03*
X1855470Y1296670D02*
G54D11*
D03*
X1884045Y1280795D02*
G54D11*
D03*
X1960245Y1541145D02*
G54D11*
D03*
X1957070Y1576070D02*
G54D11*
D03*
X2179320Y1071245D02*
G54D11*
D03*
X26670Y29845D02*
G54D11*
D03*
X52070Y29845D02*
G54D11*
D03*
X52070Y258445D02*
G54D11*
D03*
X52070Y334645D02*
G54D11*
D03*
X26670Y258445D02*
G54D11*
D03*
X26670Y334645D02*
G54D11*
D03*
X52070Y182245D02*
G54D11*
D03*
X26670Y182245D02*
G54D11*
D03*
X26670Y106045D02*
G54D11*
D03*
X52070Y410845D02*
G54D11*
D03*
X52070Y487045D02*
G54D11*
D03*
X52070Y563245D02*
G54D11*
D03*
X52070Y639445D02*
G54D11*
D03*
X26670Y410845D02*
G54D11*
D03*
X26670Y487045D02*
G54D11*
D03*
X26670Y563245D02*
G54D11*
D03*
X26670Y639445D02*
G54D11*
D03*
X52070Y1191895D02*
G54D13*
D03*
X52070Y1271880D02*
G54D13*
D03*
X29845Y1455420D02*
G54D11*
D03*
X29845Y1404620D02*
G54D11*
D03*
X29845Y1430020D02*
G54D11*
D03*
X52070Y1664970D02*
G54D11*
D03*
X52070Y1614170D02*
G54D11*
D03*
X52070Y1639570D02*
G54D11*
D03*
X128270Y29845D02*
G54D11*
D03*
X102870Y29845D02*
G54D11*
D03*
X128270Y258445D02*
G54D11*
D03*
X128270Y334645D02*
G54D11*
D03*
X102870Y258445D02*
G54D11*
D03*
X102870Y334645D02*
G54D11*
D03*
X128270Y182245D02*
G54D11*
D03*
X102870Y182245D02*
G54D11*
D03*
X128270Y106045D02*
G54D11*
D03*
X128270Y410845D02*
G54D11*
D03*
X128270Y487045D02*
G54D11*
D03*
X128270Y563245D02*
G54D11*
D03*
X128270Y639445D02*
G54D11*
D03*
X102870Y410845D02*
G54D11*
D03*
X102870Y487045D02*
G54D11*
D03*
X102870Y563245D02*
G54D11*
D03*
X102870Y639445D02*
G54D11*
D03*
X137795Y1077595D02*
G54D13*
D03*
X137795Y1157580D02*
G54D13*
D03*
X106045Y1141095D02*
G54D11*
D03*
X106045Y1090295D02*
G54D11*
D03*
X106045Y1115695D02*
G54D11*
D03*
X137795Y1455420D02*
G54D11*
D03*
X137795Y1404620D02*
G54D11*
D03*
X137795Y1430020D02*
G54D11*
D03*
X106045Y1404620D02*
G54D11*
D03*
X106045Y1455420D02*
G54D11*
D03*
X106045Y1430020D02*
G54D11*
D03*
X96520Y1614170D02*
G54D11*
D03*
X96520Y1664970D02*
G54D11*
D03*
X96520Y1639570D02*
G54D11*
D03*
X204470Y29845D02*
G54D11*
D03*
X179070Y29845D02*
G54D11*
D03*
X204470Y258445D02*
G54D11*
D03*
X204470Y334645D02*
G54D11*
D03*
X179070Y258445D02*
G54D11*
D03*
X179070Y334645D02*
G54D11*
D03*
X204470Y106045D02*
G54D11*
D03*
X179070Y106045D02*
G54D11*
D03*
X204470Y182245D02*
G54D11*
D03*
X179070Y182245D02*
G54D11*
D03*
X204470Y410845D02*
G54D11*
D03*
X204470Y487045D02*
G54D11*
D03*
X204470Y563245D02*
G54D11*
D03*
X204470Y639445D02*
G54D11*
D03*
X179070Y410845D02*
G54D11*
D03*
X179070Y487045D02*
G54D11*
D03*
X179070Y563245D02*
G54D11*
D03*
X179070Y639445D02*
G54D11*
D03*
G36*
X195964Y1101976D02*
X212976Y1101976D01*
X212976Y1084964D01*
X195964Y1084964D01*
X195964Y1101976D01*
G37*
X204470Y1144270D02*
G54D13*
D03*
X188595Y1506220D02*
G54D11*
D03*
X188595Y1406194D02*
G54D11*
D03*
X280670Y29845D02*
G54D11*
D03*
X255270Y29845D02*
G54D11*
D03*
X280670Y258445D02*
G54D11*
D03*
X280670Y334645D02*
G54D11*
D03*
X255270Y258445D02*
G54D11*
D03*
X255270Y334645D02*
G54D11*
D03*
X280670Y106045D02*
G54D11*
D03*
X255270Y106045D02*
G54D11*
D03*
X280670Y182245D02*
G54D11*
D03*
X255270Y182245D02*
G54D11*
D03*
X255270Y410845D02*
G54D11*
D03*
X255270Y487045D02*
G54D11*
D03*
X255270Y563245D02*
G54D11*
D03*
X255270Y639445D02*
G54D11*
D03*
X344170Y868045D02*
G54D11*
D03*
X274320Y1096645D02*
G54D11*
D03*
X274320Y1147445D02*
G54D11*
D03*
X274320Y1122045D02*
G54D11*
D03*
X283845Y1544320D02*
G54D11*
D03*
X258445Y1544320D02*
G54D11*
D03*
X248920Y1436370D02*
G54D13*
D03*
X248920Y1516354D02*
G54D13*
D03*
G36*
X268875Y1457690D02*
X286115Y1457690D01*
X286115Y1440450D01*
X268875Y1440450D01*
X268875Y1457690D01*
G37*
X277495Y1499870D02*
G54D11*
D03*
X356870Y29845D02*
G54D11*
D03*
X331470Y29845D02*
G54D11*
D03*
X356870Y258445D02*
G54D11*
D03*
X356870Y334645D02*
G54D11*
D03*
X331470Y258445D02*
G54D11*
D03*
X331470Y334645D02*
G54D11*
D03*
X356870Y106045D02*
G54D11*
D03*
X331470Y106045D02*
G54D11*
D03*
X356870Y182245D02*
G54D11*
D03*
X331470Y182245D02*
G54D11*
D03*
X318267Y449919D02*
G54D11*
D03*
X331470Y487045D02*
G54D11*
D03*
X331470Y563245D02*
G54D11*
D03*
X331470Y639445D02*
G54D11*
D03*
X420370Y868045D02*
G54D11*
D03*
X331470Y715645D02*
G54D11*
D03*
X331470Y791845D02*
G54D11*
D03*
X407670Y29845D02*
G54D11*
D03*
X433070Y29845D02*
G54D11*
D03*
X433070Y258445D02*
G54D11*
D03*
X433070Y334645D02*
G54D11*
D03*
X407670Y258445D02*
G54D11*
D03*
X407670Y334645D02*
G54D11*
D03*
X433070Y106045D02*
G54D11*
D03*
X407670Y106045D02*
G54D11*
D03*
X433070Y182245D02*
G54D11*
D03*
X407670Y182245D02*
G54D11*
D03*
X420586Y449633D02*
G54D11*
D03*
X407670Y487045D02*
G54D11*
D03*
X407670Y563245D02*
G54D11*
D03*
X407670Y639445D02*
G54D11*
D03*
X407670Y715645D02*
G54D11*
D03*
X408067Y791448D02*
G54D11*
D03*
X426720Y1017270D02*
G54D11*
D03*
X426720Y1097254D02*
G54D11*
D03*
X496570Y347742D02*
G54D11*
D03*
X502920Y226695D02*
G54D11*
D03*
X502920Y306680D02*
G54D11*
D03*
X496570Y566420D02*
G54D11*
D03*
X474345Y791845D02*
G54D11*
D03*
G36*
X561089Y1362326D02*
X578101Y1362326D01*
X578101Y1345314D01*
X561089Y1345314D01*
X561089Y1362326D01*
G37*
X569595Y1404620D02*
G54D13*
D03*
X572770Y1445895D02*
G54D13*
D03*
X572770Y1525880D02*
G54D13*
D03*
X741045Y791845D02*
G54D11*
D03*
X861695Y556895D02*
G54D11*
D03*
X864870Y785495D02*
G54D11*
D03*
X858520Y1258570D02*
G54D11*
D03*
X871220Y1239520D02*
G54D11*
D03*
X874395Y1544320D02*
G54D11*
D03*
X975995Y782320D02*
G54D11*
D03*
X1010920Y1544320D02*
G54D11*
D03*
X1122045Y1544320D02*
G54D11*
D03*
G36*
X1262764Y343151D02*
X1279776Y343151D01*
X1279776Y326139D01*
X1262764Y326139D01*
X1262764Y343151D01*
G37*
X1271270Y264642D02*
G54D13*
D03*
G36*
X1253239Y409826D02*
X1270251Y409826D01*
X1270251Y392814D01*
X1253239Y392814D01*
X1253239Y409826D01*
G37*
X1261745Y452120D02*
G54D13*
D03*
X1350645Y1544320D02*
G54D11*
D03*
X1436370Y248920D02*
G54D13*
D03*
X1436370Y168910D02*
G54D13*
D03*
X1420495Y1033145D02*
G54D11*
D03*
X1420495Y1113130D02*
G54D11*
D03*
X1499870Y1112520D02*
G54D13*
D03*
X1499870Y1032510D02*
G54D13*
D03*
X1471295Y1112520D02*
G54D13*
D03*
X1471295Y1032510D02*
G54D13*
D03*
X1474470Y1544320D02*
G54D11*
D03*
X1550670Y1544320D02*
G54D11*
D03*
G36*
X1643764Y1133726D02*
X1660776Y1133726D01*
X1660776Y1116714D01*
X1643764Y1116714D01*
X1643764Y1133726D01*
G37*
X1652270Y1074420D02*
G54D13*
D03*
X1706245Y1261745D02*
G54D13*
D03*
X1706245Y1181735D02*
G54D13*
D03*
G36*
X1694564Y1155951D02*
X1711576Y1155951D01*
X1711576Y1138939D01*
X1694564Y1138939D01*
X1694564Y1155951D01*
G37*
X1703070Y1096645D02*
G54D13*
D03*
X1795145Y772795D02*
G54D13*
D03*
X1795145Y692785D02*
G54D13*
D03*
X1858645Y1176020D02*
G54D13*
D03*
X1858645Y1256004D02*
G54D13*
D03*
X1884045Y1176020D02*
G54D13*
D03*
X1884045Y1256004D02*
G54D13*
D03*
G36*
X2002539Y266951D02*
X2019551Y266951D01*
X2019551Y249939D01*
X2002539Y249939D01*
X2002539Y266951D01*
G37*
X2011045Y207645D02*
G54D13*
D03*
X2039620Y207645D02*
G54D11*
D03*
X2039620Y258445D02*
G54D11*
D03*
X2039620Y233045D02*
G54D11*
D03*
X2020570Y769620D02*
G54D13*
D03*
X2020570Y689610D02*
G54D13*
D03*
X106045Y1191895D02*
G54D11*
D03*
X106045Y1291895D02*
G54D11*
D03*
G36*
X122939Y1225801D02*
X139951Y1225801D01*
X139951Y1208789D01*
X122939Y1208789D01*
X122939Y1225801D01*
G37*
X131445Y1287272D02*
G54D13*
D03*
X194945Y1214120D02*
G54D13*
D03*
X194945Y1294104D02*
G54D13*
D03*
X258445Y1210945D02*
G54D13*
D03*
X258445Y1290930D02*
G54D13*
D03*
G36*
X405514Y1571876D02*
X422526Y1571876D01*
X422526Y1554864D01*
X405514Y1554864D01*
X405514Y1571876D01*
G37*
X414020Y1614170D02*
G54D13*
D03*
G36*
X478539Y1590926D02*
X495551Y1590926D01*
X495551Y1573914D01*
X478539Y1573914D01*
X478539Y1590926D01*
G37*
X487045Y1633220D02*
G54D13*
D03*
X569595Y607695D02*
G54D13*
D03*
X569595Y687680D02*
G54D13*
D03*
G36*
X554739Y1244851D02*
X571751Y1244851D01*
X571751Y1227839D01*
X554739Y1227839D01*
X554739Y1244851D01*
G37*
X563245Y1306322D02*
G54D13*
D03*
G36*
X580139Y1248026D02*
X597151Y1248026D01*
X597151Y1231014D01*
X580139Y1231014D01*
X580139Y1248026D01*
G37*
X588645Y1309497D02*
G54D13*
D03*
X734695Y677545D02*
G54D13*
D03*
X734695Y597535D02*
G54D13*
D03*
G36*
X853075Y667115D02*
X870315Y667115D01*
X870315Y649875D01*
X853075Y649875D01*
X853075Y667115D01*
G37*
X861695Y607695D02*
G54D11*
D03*
G36*
X1034050Y698865D02*
X1051290Y698865D01*
X1051290Y681625D01*
X1034050Y681625D01*
X1034050Y698865D01*
G37*
X1042670Y620242D02*
G54D11*
D03*
G36*
X1005475Y698865D02*
X1022715Y698865D01*
X1022715Y681625D01*
X1005475Y681625D01*
X1005475Y698865D01*
G37*
X1014095Y620242D02*
G54D11*
D03*
X1436370Y140970D02*
G54D13*
D03*
X1436370Y60960D02*
G54D13*
D03*
X1407795Y1277620D02*
G54D13*
D03*
X1407795Y1197610D02*
G54D13*
D03*
X1626870Y953770D02*
G54D13*
D03*
X1626870Y1033754D02*
G54D13*
D03*
X1658620Y953770D02*
G54D13*
D03*
X1658620Y1033754D02*
G54D13*
D03*
X1741170Y77470D02*
G54D13*
D03*
X1741170Y157454D02*
G54D13*
D03*
X1712595Y77470D02*
G54D13*
D03*
X1712595Y157454D02*
G54D13*
D03*
X1890395Y1541145D02*
G54D13*
D03*
X1890395Y1621130D02*
G54D13*
D03*
X2106295Y137795D02*
G54D13*
D03*
X2106295Y57785D02*
G54D13*
D03*
X2163445Y58420D02*
G54D13*
D03*
X2163445Y138404D02*
G54D13*
D03*
X77470Y55245D02*
G54D11*
D03*
X77470Y233045D02*
G54D11*
D03*
X77470Y207645D02*
G54D11*
D03*
X77470Y309245D02*
G54D11*
D03*
X77470Y283845D02*
G54D11*
D03*
X77470Y385445D02*
G54D11*
D03*
X77470Y360045D02*
G54D11*
D03*
X77470Y461645D02*
G54D11*
D03*
X77470Y436245D02*
G54D11*
D03*
X77470Y537845D02*
G54D11*
D03*
X77470Y512445D02*
G54D11*
D03*
X77470Y614045D02*
G54D11*
D03*
X77470Y588645D02*
G54D11*
D03*
X77470Y664845D02*
G54D11*
D03*
G36*
X40275Y1063990D02*
X57515Y1063990D01*
X57515Y1046750D01*
X40275Y1046750D01*
X40275Y1063990D01*
G37*
X74295Y1055370D02*
G54D11*
D03*
G36*
X37100Y1143365D02*
X54340Y1143365D01*
X54340Y1126125D01*
X37100Y1126125D01*
X37100Y1143365D01*
G37*
X71120Y1134745D02*
G54D11*
D03*
X29845Y1366520D02*
G54D11*
D03*
X80645Y1366520D02*
G54D11*
D03*
X55245Y1366520D02*
G54D11*
D03*
X153670Y80645D02*
G54D11*
D03*
X153670Y55245D02*
G54D11*
D03*
X229870Y80645D02*
G54D11*
D03*
X229870Y55245D02*
G54D11*
D03*
X306070Y80645D02*
G54D11*
D03*
X306070Y55245D02*
G54D11*
D03*
X382270Y80645D02*
G54D11*
D03*
X382270Y55245D02*
G54D11*
D03*
X153670Y131445D02*
G54D11*
D03*
X153670Y156845D02*
G54D11*
D03*
X229870Y131445D02*
G54D11*
D03*
X229870Y156845D02*
G54D11*
D03*
X306070Y131445D02*
G54D11*
D03*
X306070Y156845D02*
G54D11*
D03*
X382270Y131445D02*
G54D11*
D03*
X382270Y156845D02*
G54D11*
D03*
X153670Y233045D02*
G54D11*
D03*
X153670Y207645D02*
G54D11*
D03*
X229870Y233045D02*
G54D11*
D03*
X229870Y207645D02*
G54D11*
D03*
X306070Y233045D02*
G54D11*
D03*
X306070Y207645D02*
G54D11*
D03*
X382270Y233045D02*
G54D11*
D03*
X382270Y207645D02*
G54D11*
D03*
X153670Y309245D02*
G54D11*
D03*
X153670Y283845D02*
G54D11*
D03*
X229870Y309245D02*
G54D11*
D03*
X229870Y283845D02*
G54D11*
D03*
X306070Y309245D02*
G54D11*
D03*
X306070Y283845D02*
G54D11*
D03*
X382270Y309245D02*
G54D11*
D03*
X382270Y283845D02*
G54D11*
D03*
X153670Y385445D02*
G54D11*
D03*
X153670Y360045D02*
G54D11*
D03*
X229870Y385445D02*
G54D11*
D03*
X229870Y360045D02*
G54D11*
D03*
X306070Y360045D02*
G54D11*
D03*
X382270Y360045D02*
G54D11*
D03*
X153670Y461645D02*
G54D11*
D03*
X153670Y436245D02*
G54D11*
D03*
X229870Y461645D02*
G54D11*
D03*
X229870Y436245D02*
G54D11*
D03*
X306070Y487045D02*
G54D11*
D03*
X153670Y537845D02*
G54D11*
D03*
X153670Y512445D02*
G54D11*
D03*
X229870Y537845D02*
G54D11*
D03*
X229870Y512445D02*
G54D11*
D03*
X306070Y563245D02*
G54D11*
D03*
X153670Y614045D02*
G54D11*
D03*
X153670Y588645D02*
G54D11*
D03*
X229870Y614045D02*
G54D11*
D03*
X229870Y588645D02*
G54D11*
D03*
X153670Y664845D02*
G54D11*
D03*
X229870Y664845D02*
G54D11*
D03*
X306070Y741045D02*
G54D11*
D03*
X306070Y664845D02*
G54D11*
D03*
X306070Y766445D02*
G54D11*
D03*
X306070Y842645D02*
G54D11*
D03*
G36*
X262639Y1060701D02*
X279651Y1060701D01*
X279651Y1043689D01*
X262639Y1043689D01*
X262639Y1060701D01*
G37*
X220345Y1052195D02*
G54D13*
D03*
G36*
X319675Y1384665D02*
X336915Y1384665D01*
X336915Y1367425D01*
X319675Y1367425D01*
X319675Y1384665D01*
G37*
X328295Y1350645D02*
G54D11*
D03*
X150495Y1534795D02*
G54D13*
D03*
X230480Y1534795D02*
G54D13*
D03*
X633095Y163195D02*
G54D13*
D03*
X713080Y163195D02*
G54D13*
D03*
X601345Y137795D02*
G54D13*
D03*
X521335Y137795D02*
G54D13*
D03*
X633095Y226695D02*
G54D13*
D03*
X713080Y226695D02*
G54D13*
D03*
X712470Y290195D02*
G54D13*
D03*
X632460Y290195D02*
G54D13*
D03*
X601345Y852170D02*
G54D13*
D03*
X521335Y852170D02*
G54D13*
D03*
X696595Y915670D02*
G54D13*
D03*
X616585Y915670D02*
G54D13*
D03*
G36*
X681739Y898776D02*
X698751Y898776D01*
X698751Y881764D01*
X681739Y881764D01*
X681739Y898776D01*
G37*
X620243Y890270D02*
G54D13*
D03*
X518795Y883920D02*
G54D13*
D03*
X598780Y883920D02*
G54D13*
D03*
X588645Y915670D02*
G54D11*
D03*
X537845Y915670D02*
G54D11*
D03*
X563245Y915670D02*
G54D11*
D03*
X696595Y991870D02*
G54D13*
D03*
X616585Y991870D02*
G54D13*
D03*
G36*
X681739Y974976D02*
X698751Y974976D01*
X698751Y957964D01*
X681739Y957964D01*
X681739Y974976D01*
G37*
X620243Y966470D02*
G54D13*
D03*
X588645Y991870D02*
G54D11*
D03*
X537845Y991870D02*
G54D11*
D03*
X563245Y991870D02*
G54D11*
D03*
X696595Y1068070D02*
G54D13*
D03*
X616585Y1068070D02*
G54D13*
D03*
G36*
X681739Y1051176D02*
X698751Y1051176D01*
X698751Y1034164D01*
X681739Y1034164D01*
X681739Y1051176D01*
G37*
X620243Y1042670D02*
G54D13*
D03*
X588645Y1068070D02*
G54D11*
D03*
X537845Y1068070D02*
G54D11*
D03*
X563245Y1068070D02*
G54D11*
D03*
G36*
X468900Y1381490D02*
X486140Y1381490D01*
X486140Y1364250D01*
X468900Y1364250D01*
X468900Y1381490D01*
G37*
X477520Y1347470D02*
G54D11*
D03*
G36*
X916689Y152651D02*
X933701Y152651D01*
X933701Y135639D01*
X916689Y135639D01*
X916689Y152651D01*
G37*
X975995Y144145D02*
G54D13*
D03*
G36*
X999239Y235201D02*
X1016251Y235201D01*
X1016251Y218189D01*
X999239Y218189D01*
X999239Y235201D01*
G37*
X937743Y226695D02*
G54D13*
D03*
G36*
X891175Y232140D02*
X908415Y232140D01*
X908415Y214900D01*
X891175Y214900D01*
X891175Y232140D01*
G37*
X848995Y223520D02*
G54D11*
D03*
G36*
X929389Y295526D02*
X946401Y295526D01*
X946401Y278514D01*
X929389Y278514D01*
X929389Y295526D01*
G37*
X1007872Y287020D02*
G54D13*
D03*
X912495Y287020D02*
G54D13*
D03*
X832485Y287020D02*
G54D13*
D03*
X995045Y753745D02*
G54D11*
D03*
X845820Y1036320D02*
G54D13*
D03*
X765810Y1036320D02*
G54D13*
D03*
X852170Y1518920D02*
G54D11*
D03*
G36*
X1104014Y232026D02*
X1121026Y232026D01*
X1121026Y215014D01*
X1104014Y215014D01*
X1104014Y232026D01*
G37*
X1182497Y223520D02*
G54D13*
D03*
X1141095Y287020D02*
G54D11*
D03*
X1061085Y287020D02*
G54D11*
D03*
X1131570Y693420D02*
G54D13*
D03*
X1211555Y693420D02*
G54D13*
D03*
X1217295Y1309370D02*
G54D11*
D03*
X1217295Y1277620D02*
G54D11*
D03*
X1503045Y86995D02*
G54D13*
D03*
X1583030Y86995D02*
G54D13*
D03*
X1503045Y150495D02*
G54D13*
D03*
X1583030Y150495D02*
G54D13*
D03*
G36*
X1481839Y235201D02*
X1498851Y235201D01*
X1498851Y218189D01*
X1481839Y218189D01*
X1481839Y235201D01*
G37*
X1541145Y226695D02*
G54D13*
D03*
G36*
X1431039Y387601D02*
X1448051Y387601D01*
X1448051Y370589D01*
X1431039Y370589D01*
X1431039Y387601D01*
G37*
X1388745Y379095D02*
G54D13*
D03*
X1490345Y541020D02*
G54D13*
D03*
X1570330Y541020D02*
G54D13*
D03*
X1372870Y699770D02*
G54D13*
D03*
X1452854Y699770D02*
G54D13*
D03*
G36*
X1421514Y914651D02*
X1438526Y914651D01*
X1438526Y897639D01*
X1421514Y897639D01*
X1421514Y914651D01*
G37*
X1499997Y906145D02*
G54D13*
D03*
G36*
X1475489Y994026D02*
X1492501Y994026D01*
X1492501Y977014D01*
X1475489Y977014D01*
X1475489Y994026D01*
G37*
X1433195Y985520D02*
G54D13*
D03*
X1601470Y1131570D02*
G54D13*
D03*
G36*
X1450089Y1155951D02*
X1467101Y1155951D01*
X1467101Y1138939D01*
X1450089Y1138939D01*
X1450089Y1155951D01*
G37*
X1407795Y1147445D02*
G54D13*
D03*
X1534795Y1277620D02*
G54D11*
D03*
X1442720Y1518920D02*
G54D11*
D03*
G36*
X1850139Y238376D02*
X1867151Y238376D01*
X1867151Y221364D01*
X1850139Y221364D01*
X1850139Y238376D01*
G37*
X1807845Y229870D02*
G54D13*
D03*
X1795145Y963295D02*
G54D13*
D03*
X1875130Y963295D02*
G54D13*
D03*
G36*
X1837325Y1140190D02*
X1854565Y1140190D01*
X1854565Y1122950D01*
X1837325Y1122950D01*
X1837325Y1140190D01*
G37*
X1871345Y1131570D02*
G54D11*
D03*
X1671320Y1309370D02*
G54D11*
D03*
X1677670Y1277620D02*
G54D11*
D03*
G36*
X1869189Y1375026D02*
X1886201Y1375026D01*
X1886201Y1358014D01*
X1869189Y1358014D01*
X1869189Y1375026D01*
G37*
X1807692Y1366520D02*
G54D13*
D03*
G36*
X1869189Y1349626D02*
X1886201Y1349626D01*
X1886201Y1332614D01*
X1869189Y1332614D01*
X1869189Y1349626D01*
G37*
X1807692Y1341120D02*
G54D13*
D03*
G36*
X1869189Y1451226D02*
X1886201Y1451226D01*
X1886201Y1434214D01*
X1869189Y1434214D01*
X1869189Y1451226D01*
G37*
X1807692Y1442720D02*
G54D13*
D03*
G36*
X1869189Y1425826D02*
X1886201Y1425826D01*
X1886201Y1408814D01*
X1869189Y1408814D01*
X1869189Y1425826D01*
G37*
X1807692Y1417320D02*
G54D13*
D03*
G36*
X1869189Y1502026D02*
X1886201Y1502026D01*
X1886201Y1485014D01*
X1869189Y1485014D01*
X1869189Y1502026D01*
G37*
X1807692Y1493520D02*
G54D13*
D03*
G36*
X1869189Y1527426D02*
X1886201Y1527426D01*
X1886201Y1510414D01*
X1869189Y1510414D01*
X1869189Y1527426D01*
G37*
X1807692Y1518920D02*
G54D13*
D03*
X1995170Y918845D02*
G54D13*
D03*
X2075154Y918845D02*
G54D13*
D03*
X2138045Y1071245D02*
G54D11*
D03*
X77470Y29845D02*
G54D11*
D03*
X77470Y258445D02*
G54D11*
D03*
X77470Y334645D02*
G54D11*
D03*
X77470Y182245D02*
G54D11*
D03*
X80645Y118745D02*
G54D14*
D03*
X77470Y410845D02*
G54D11*
D03*
X77470Y487045D02*
G54D11*
D03*
X77470Y563245D02*
G54D11*
D03*
X77470Y639445D02*
G54D11*
D03*
X80645Y1191895D02*
G54D13*
D03*
X80645Y1271880D02*
G54D13*
D03*
X80645Y1528445D02*
G54D14*
D03*
X67945Y1455420D02*
G54D11*
D03*
X67945Y1404620D02*
G54D11*
D03*
X67945Y1430020D02*
G54D11*
D03*
G36*
X40275Y1327515D02*
X57515Y1327515D01*
X57515Y1310275D01*
X40275Y1310275D01*
X40275Y1327515D01*
G37*
X74295Y1318895D02*
G54D11*
D03*
X153670Y29845D02*
G54D11*
D03*
X229870Y29845D02*
G54D11*
D03*
X306070Y29845D02*
G54D11*
D03*
X382270Y29845D02*
G54D11*
D03*
X153670Y258445D02*
G54D11*
D03*
X153670Y334645D02*
G54D11*
D03*
X229870Y258445D02*
G54D11*
D03*
X229870Y334645D02*
G54D11*
D03*
X306070Y258445D02*
G54D11*
D03*
X306070Y334645D02*
G54D11*
D03*
X382270Y258445D02*
G54D11*
D03*
X382270Y334645D02*
G54D11*
D03*
X153670Y106045D02*
G54D11*
D03*
X229870Y106045D02*
G54D11*
D03*
X306070Y106045D02*
G54D11*
D03*
X382270Y106045D02*
G54D11*
D03*
X153670Y182245D02*
G54D11*
D03*
X229870Y182245D02*
G54D11*
D03*
X306070Y182245D02*
G54D11*
D03*
X382270Y182245D02*
G54D11*
D03*
X153670Y410845D02*
G54D11*
D03*
X153670Y487045D02*
G54D11*
D03*
X153670Y563245D02*
G54D11*
D03*
X153670Y639445D02*
G54D11*
D03*
X229870Y410845D02*
G54D11*
D03*
X229870Y487045D02*
G54D11*
D03*
X229870Y563245D02*
G54D11*
D03*
X229870Y639445D02*
G54D11*
D03*
G36*
X332375Y1044940D02*
X349615Y1044940D01*
X349615Y1027700D01*
X332375Y1027700D01*
X332375Y1044940D01*
G37*
X315595Y1036320D02*
G54D11*
D03*
X306070Y1080770D02*
G54D13*
D03*
X306070Y1160754D02*
G54D13*
D03*
X185420Y1185545D02*
G54D11*
D03*
X134620Y1185545D02*
G54D11*
D03*
X160020Y1185545D02*
G54D11*
D03*
X213995Y1182370D02*
G54D13*
D03*
X293980Y1182370D02*
G54D13*
D03*
G36*
X160925Y1102090D02*
X178165Y1102090D01*
X178165Y1084850D01*
X160925Y1084850D01*
X160925Y1102090D01*
G37*
X169545Y1144270D02*
G54D11*
D03*
X394970Y1096645D02*
G54D13*
D03*
X394970Y1016635D02*
G54D13*
D03*
X239395Y1147445D02*
G54D11*
D03*
X239395Y1096645D02*
G54D11*
D03*
X239395Y1122045D02*
G54D11*
D03*
G36*
X154689Y1416301D02*
X171701Y1416301D01*
X171701Y1399289D01*
X154689Y1399289D01*
X154689Y1416301D01*
G37*
X163195Y1477772D02*
G54D13*
D03*
G36*
X367414Y1559176D02*
X384426Y1559176D01*
X384426Y1542164D01*
X367414Y1542164D01*
X367414Y1559176D01*
G37*
X325120Y1550670D02*
G54D13*
D03*
X318770Y1410970D02*
G54D13*
D03*
X238760Y1410970D02*
G54D13*
D03*
G36*
X208664Y1492501D02*
X225676Y1492501D01*
X225676Y1475489D01*
X208664Y1475489D01*
X208664Y1492501D01*
G37*
X217170Y1433195D02*
G54D13*
D03*
G36*
X227600Y1346565D02*
X244840Y1346565D01*
X244840Y1329325D01*
X227600Y1329325D01*
X227600Y1346565D01*
G37*
X236220Y1363345D02*
G54D11*
D03*
X610870Y337820D02*
G54D11*
D03*
X633095Y194945D02*
G54D13*
D03*
X713080Y194945D02*
G54D13*
D03*
X633095Y258445D02*
G54D13*
D03*
X713080Y258445D02*
G54D13*
D03*
X712470Y321945D02*
G54D13*
D03*
X632460Y321945D02*
G54D13*
D03*
X525145Y220345D02*
G54D13*
D03*
X525145Y194945D02*
G54D13*
D03*
X525145Y296545D02*
G54D13*
D03*
X525145Y271145D02*
G54D13*
D03*
X601345Y220345D02*
G54D13*
D03*
X601345Y194945D02*
G54D13*
D03*
X601345Y296545D02*
G54D13*
D03*
X601345Y271145D02*
G54D13*
D03*
X525145Y169545D02*
G54D13*
D03*
X525145Y245745D02*
G54D13*
D03*
G36*
X516639Y330451D02*
X533651Y330451D01*
X533651Y313439D01*
X516639Y313439D01*
X516639Y330451D01*
G37*
X601345Y169545D02*
G54D13*
D03*
X601345Y245745D02*
G54D13*
D03*
X601345Y321945D02*
G54D13*
D03*
X696595Y941070D02*
G54D13*
D03*
X616585Y941070D02*
G54D13*
D03*
X521970Y956945D02*
G54D13*
D03*
X601954Y956945D02*
G54D13*
D03*
X683895Y864870D02*
G54D11*
D03*
X633095Y864870D02*
G54D11*
D03*
X658495Y864870D02*
G54D11*
D03*
X696595Y1017270D02*
G54D13*
D03*
X616585Y1017270D02*
G54D13*
D03*
X696595Y1093470D02*
G54D13*
D03*
X616585Y1093470D02*
G54D13*
D03*
X512445Y1023620D02*
G54D13*
D03*
X592430Y1023620D02*
G54D13*
D03*
X512445Y1099820D02*
G54D13*
D03*
X592430Y1099820D02*
G54D13*
D03*
X471170Y1099820D02*
G54D11*
D03*
X471170Y1074420D02*
G54D11*
D03*
X471170Y1049020D02*
G54D11*
D03*
X471170Y1023620D02*
G54D11*
D03*
G36*
X507114Y1419476D02*
X524126Y1419476D01*
X524126Y1402464D01*
X507114Y1402464D01*
X507114Y1419476D01*
G37*
X464820Y1410970D02*
G54D13*
D03*
X560070Y1547495D02*
G54D13*
D03*
X480060Y1547495D02*
G54D13*
D03*
X537845Y1388745D02*
G54D13*
D03*
X537845Y1308735D02*
G54D13*
D03*
G36*
X929389Y266951D02*
X946401Y266951D01*
X946401Y249939D01*
X929389Y249939D01*
X929389Y266951D01*
G37*
X1007872Y258445D02*
G54D13*
D03*
X833120Y255270D02*
G54D11*
D03*
X913104Y255270D02*
G54D11*
D03*
X766445Y442595D02*
G54D13*
D03*
X766445Y417195D02*
G54D13*
D03*
X766445Y518795D02*
G54D13*
D03*
X766445Y493395D02*
G54D13*
D03*
X842645Y442595D02*
G54D13*
D03*
X842645Y417195D02*
G54D13*
D03*
X842645Y518795D02*
G54D13*
D03*
X842645Y493395D02*
G54D13*
D03*
X766445Y391795D02*
G54D13*
D03*
X766445Y467995D02*
G54D13*
D03*
G36*
X757939Y552701D02*
X774951Y552701D01*
X774951Y535689D01*
X757939Y535689D01*
X757939Y552701D01*
G37*
X842645Y391795D02*
G54D13*
D03*
X842645Y467995D02*
G54D13*
D03*
X842645Y544195D02*
G54D13*
D03*
X883920Y442595D02*
G54D13*
D03*
X883920Y417195D02*
G54D13*
D03*
X883920Y518795D02*
G54D13*
D03*
X883920Y493395D02*
G54D13*
D03*
X960120Y442595D02*
G54D13*
D03*
X960120Y417195D02*
G54D13*
D03*
X960120Y518795D02*
G54D13*
D03*
X960120Y493395D02*
G54D13*
D03*
X883920Y391795D02*
G54D13*
D03*
X883920Y467995D02*
G54D13*
D03*
G36*
X875414Y552701D02*
X892426Y552701D01*
X892426Y535689D01*
X875414Y535689D01*
X875414Y552701D01*
G37*
X960120Y391795D02*
G54D13*
D03*
X960120Y467995D02*
G54D13*
D03*
X960120Y544195D02*
G54D13*
D03*
X766445Y848995D02*
G54D13*
D03*
X766445Y823595D02*
G54D13*
D03*
X766445Y925195D02*
G54D13*
D03*
X766445Y899795D02*
G54D13*
D03*
X842645Y848995D02*
G54D13*
D03*
X842645Y823595D02*
G54D13*
D03*
X842645Y925195D02*
G54D13*
D03*
X842645Y899795D02*
G54D13*
D03*
X766445Y798195D02*
G54D13*
D03*
X766445Y874395D02*
G54D13*
D03*
G36*
X757939Y959101D02*
X774951Y959101D01*
X774951Y942089D01*
X757939Y942089D01*
X757939Y959101D01*
G37*
X842645Y798195D02*
G54D13*
D03*
X842645Y874395D02*
G54D13*
D03*
X842645Y950595D02*
G54D13*
D03*
X880745Y848995D02*
G54D13*
D03*
X880745Y823595D02*
G54D13*
D03*
X880745Y925195D02*
G54D13*
D03*
X880745Y899795D02*
G54D13*
D03*
X956945Y848995D02*
G54D13*
D03*
X956945Y823595D02*
G54D13*
D03*
X956945Y925195D02*
G54D13*
D03*
X956945Y899795D02*
G54D13*
D03*
X880745Y798195D02*
G54D13*
D03*
X880745Y874395D02*
G54D13*
D03*
G36*
X872239Y959101D02*
X889251Y959101D01*
X889251Y942089D01*
X872239Y942089D01*
X872239Y959101D01*
G37*
X956945Y798195D02*
G54D13*
D03*
X956945Y874395D02*
G54D13*
D03*
X956945Y950595D02*
G54D13*
D03*
G36*
X827789Y1013076D02*
X844801Y1013076D01*
X844801Y996064D01*
X827789Y996064D01*
X827789Y1013076D01*
G37*
X785495Y1004570D02*
G54D13*
D03*
X950595Y1166495D02*
G54D13*
D03*
X950595Y1191895D02*
G54D13*
D03*
X950595Y1090295D02*
G54D13*
D03*
X950595Y1115695D02*
G54D13*
D03*
X874395Y1166495D02*
G54D13*
D03*
X874395Y1191895D02*
G54D13*
D03*
X874395Y1090295D02*
G54D13*
D03*
X874395Y1115695D02*
G54D13*
D03*
X950595Y1217295D02*
G54D13*
D03*
X950595Y1141095D02*
G54D13*
D03*
G36*
X942089Y1073401D02*
X959101Y1073401D01*
X959101Y1056389D01*
X942089Y1056389D01*
X942089Y1073401D01*
G37*
X874395Y1217295D02*
G54D13*
D03*
X874395Y1141095D02*
G54D13*
D03*
X874395Y1064895D02*
G54D13*
D03*
X763270Y1122045D02*
G54D13*
D03*
X763270Y1096645D02*
G54D13*
D03*
X763270Y1198245D02*
G54D13*
D03*
X763270Y1172845D02*
G54D13*
D03*
X839470Y1122045D02*
G54D13*
D03*
X839470Y1096645D02*
G54D13*
D03*
X839470Y1198245D02*
G54D13*
D03*
X839470Y1172845D02*
G54D13*
D03*
X763270Y1071245D02*
G54D13*
D03*
X763270Y1147445D02*
G54D13*
D03*
G36*
X754764Y1232151D02*
X771776Y1232151D01*
X771776Y1215139D01*
X754764Y1215139D01*
X754764Y1232151D01*
G37*
X839470Y1071245D02*
G54D13*
D03*
X839470Y1147445D02*
G54D13*
D03*
X839470Y1223645D02*
G54D13*
D03*
X791845Y1642745D02*
G54D14*
D03*
X1249045Y118745D02*
G54D14*
D03*
X1141095Y255270D02*
G54D11*
D03*
X1061085Y255270D02*
G54D11*
D03*
X1312545Y233045D02*
G54D13*
D03*
X1312545Y153035D02*
G54D13*
D03*
X1131570Y728345D02*
G54D13*
D03*
X1211555Y728345D02*
G54D13*
D03*
X1220470Y1544320D02*
G54D11*
D03*
X1115695Y1325245D02*
G54D13*
D03*
X1115695Y1401445D02*
G54D13*
D03*
X1115695Y1376045D02*
G54D13*
D03*
X1115695Y1477645D02*
G54D13*
D03*
X1115695Y1452245D02*
G54D13*
D03*
X1191895Y1325245D02*
G54D13*
D03*
X1191895Y1401445D02*
G54D13*
D03*
X1191895Y1376045D02*
G54D13*
D03*
X1191895Y1477645D02*
G54D13*
D03*
X1191895Y1452245D02*
G54D13*
D03*
X1115695Y1426845D02*
G54D13*
D03*
X1115695Y1350645D02*
G54D13*
D03*
G36*
X1107190Y1511551D02*
X1124201Y1511551D01*
X1124201Y1494539D01*
X1107190Y1494539D01*
X1107190Y1511551D01*
G37*
X1191895Y1426845D02*
G54D13*
D03*
X1191895Y1350645D02*
G54D13*
D03*
X1191895Y1503045D02*
G54D13*
D03*
X1236345Y1325245D02*
G54D13*
D03*
X1236345Y1401445D02*
G54D13*
D03*
X1236345Y1376045D02*
G54D13*
D03*
X1236345Y1477645D02*
G54D13*
D03*
X1236345Y1452245D02*
G54D13*
D03*
X1312545Y1325245D02*
G54D13*
D03*
X1312545Y1401445D02*
G54D13*
D03*
X1312545Y1376045D02*
G54D13*
D03*
X1312545Y1477645D02*
G54D13*
D03*
X1312545Y1452245D02*
G54D13*
D03*
X1236345Y1426845D02*
G54D13*
D03*
X1236345Y1350645D02*
G54D13*
D03*
G36*
X1227839Y1511551D02*
X1244851Y1511551D01*
X1244851Y1494539D01*
X1227839Y1494539D01*
X1227839Y1511551D01*
G37*
X1312545Y1426845D02*
G54D13*
D03*
X1312545Y1350645D02*
G54D13*
D03*
X1312545Y1503045D02*
G54D13*
D03*
X1503045Y118745D02*
G54D13*
D03*
X1583030Y118745D02*
G54D13*
D03*
G36*
X1481839Y273301D02*
X1498851Y273301D01*
X1498851Y256289D01*
X1481839Y256289D01*
X1481839Y273301D01*
G37*
X1541145Y264795D02*
G54D13*
D03*
X1569720Y483870D02*
G54D13*
D03*
X1489710Y483870D02*
G54D13*
D03*
X1503045Y934720D02*
G54D13*
D03*
X1423035Y934720D02*
G54D13*
D03*
G36*
X1434214Y886076D02*
X1451226Y886076D01*
X1451226Y869064D01*
X1434214Y869064D01*
X1434214Y886076D01*
G37*
X1493520Y877570D02*
G54D13*
D03*
X1372870Y1150620D02*
G54D13*
D03*
X1372870Y1277620D02*
G54D13*
D03*
X1445895Y1033145D02*
G54D11*
D03*
X1445895Y1113130D02*
G54D11*
D03*
X1350645Y1325245D02*
G54D13*
D03*
X1350645Y1401445D02*
G54D13*
D03*
X1350645Y1376045D02*
G54D13*
D03*
X1350645Y1477645D02*
G54D13*
D03*
X1350645Y1452245D02*
G54D13*
D03*
X1426845Y1325245D02*
G54D13*
D03*
X1426845Y1401445D02*
G54D13*
D03*
X1426845Y1376045D02*
G54D13*
D03*
X1426845Y1477645D02*
G54D13*
D03*
X1426845Y1452245D02*
G54D13*
D03*
X1350645Y1426845D02*
G54D13*
D03*
X1350645Y1350645D02*
G54D13*
D03*
G36*
X1342139Y1511551D02*
X1359151Y1511551D01*
X1359151Y1494539D01*
X1342139Y1494539D01*
X1342139Y1511551D01*
G37*
X1426845Y1426845D02*
G54D13*
D03*
X1426845Y1350645D02*
G54D13*
D03*
X1426845Y1503045D02*
G54D13*
D03*
X1464945Y1325245D02*
G54D13*
D03*
X1464945Y1401445D02*
G54D13*
D03*
X1464945Y1376045D02*
G54D13*
D03*
X1464945Y1477645D02*
G54D13*
D03*
X1464945Y1452245D02*
G54D13*
D03*
X1541145Y1325245D02*
G54D13*
D03*
X1541145Y1401445D02*
G54D13*
D03*
X1541145Y1376045D02*
G54D13*
D03*
X1541145Y1477645D02*
G54D13*
D03*
X1541145Y1452245D02*
G54D13*
D03*
X1464945Y1426845D02*
G54D13*
D03*
X1464945Y1350645D02*
G54D13*
D03*
G36*
X1456439Y1511551D02*
X1473451Y1511551D01*
X1473451Y1494539D01*
X1456439Y1494539D01*
X1456439Y1511551D01*
G37*
X1541145Y1426845D02*
G54D13*
D03*
X1541145Y1350645D02*
G54D13*
D03*
X1541145Y1503045D02*
G54D13*
D03*
X1795145Y934720D02*
G54D13*
D03*
X1875130Y934720D02*
G54D13*
D03*
X1833245Y1176020D02*
G54D13*
D03*
X1833245Y1256004D02*
G54D13*
D03*
X1677670Y1261745D02*
G54D13*
D03*
X1677670Y1181735D02*
G54D13*
D03*
X1731645Y1083945D02*
G54D13*
D03*
X1731645Y1160145D02*
G54D13*
D03*
X1731645Y1134745D02*
G54D13*
D03*
X1731645Y1236345D02*
G54D13*
D03*
X1731645Y1210945D02*
G54D13*
D03*
X1807845Y1083945D02*
G54D13*
D03*
X1807845Y1160145D02*
G54D13*
D03*
X1807845Y1134745D02*
G54D13*
D03*
X1807845Y1236345D02*
G54D13*
D03*
X1807845Y1210945D02*
G54D13*
D03*
X1731645Y1185545D02*
G54D13*
D03*
X1731645Y1109345D02*
G54D13*
D03*
G36*
X1723139Y1270251D02*
X1740151Y1270251D01*
X1740151Y1253239D01*
X1723139Y1253239D01*
X1723139Y1270251D01*
G37*
X1807845Y1185545D02*
G54D13*
D03*
X1807845Y1109345D02*
G54D13*
D03*
X1807845Y1261745D02*
G54D13*
D03*
G36*
X1869189Y1476626D02*
X1886201Y1476626D01*
X1886201Y1459614D01*
X1869189Y1459614D01*
X1869189Y1476626D01*
G37*
X1807692Y1468120D02*
G54D13*
D03*
G36*
X1869189Y1400426D02*
X1886201Y1400426D01*
X1886201Y1383414D01*
X1869189Y1383414D01*
X1869189Y1400426D01*
G37*
X1807692Y1391920D02*
G54D13*
D03*
X1693545Y1337945D02*
G54D13*
D03*
X1693545Y1312545D02*
G54D13*
D03*
X1693545Y1414145D02*
G54D13*
D03*
X1693545Y1388745D02*
G54D13*
D03*
X1693545Y1490345D02*
G54D13*
D03*
X1693545Y1464945D02*
G54D13*
D03*
G36*
X1685039Y1549651D02*
X1702051Y1549651D01*
X1702051Y1532639D01*
X1685039Y1532639D01*
X1685039Y1549651D01*
G37*
X1769745Y1312545D02*
G54D13*
D03*
X1769745Y1337945D02*
G54D13*
D03*
X1769745Y1388745D02*
G54D13*
D03*
X1769745Y1414145D02*
G54D13*
D03*
X1769745Y1464945D02*
G54D13*
D03*
X1769745Y1490345D02*
G54D13*
D03*
X1769745Y1541145D02*
G54D13*
D03*
X1693545Y1439545D02*
G54D13*
D03*
X1693545Y1363345D02*
G54D13*
D03*
X1693545Y1515745D02*
G54D13*
D03*
X1769745Y1363345D02*
G54D13*
D03*
X1769745Y1439545D02*
G54D13*
D03*
X1769745Y1515745D02*
G54D13*
D03*
X2036445Y106045D02*
G54D14*
D03*
X2147570Y160020D02*
G54D11*
D03*
X2122170Y160020D02*
G54D11*
D03*
X2134870Y179070D02*
G54D11*
D03*
G36*
X2161289Y206626D02*
X2178301Y206626D01*
X2178301Y189614D01*
X2161289Y189614D01*
X2161289Y206626D01*
G37*
X2118995Y198120D02*
G54D13*
D03*
X2068195Y207645D02*
G54D11*
D03*
X2068195Y258445D02*
G54D11*
D03*
X2068195Y233045D02*
G54D11*
D03*
X2052320Y769620D02*
G54D13*
D03*
X2052320Y689610D02*
G54D13*
D03*
X1995170Y947420D02*
G54D13*
D03*
X2075154Y947420D02*
G54D13*
D03*
X2036445Y1503045D02*
G54D11*
D03*
X2036445Y1528445D02*
G54D11*
D03*
X2036445Y1426845D02*
G54D11*
D03*
X2036445Y1452245D02*
G54D11*
D03*
X2036445Y1350645D02*
G54D11*
D03*
X2036445Y1376045D02*
G54D11*
D03*
G36*
X2027825Y1562465D02*
X2045065Y1562465D01*
X2045065Y1545225D01*
X2027825Y1545225D01*
X2027825Y1562465D01*
G37*
X2036445Y1401445D02*
G54D11*
D03*
X2036445Y1477645D02*
G54D11*
D03*
X2036445Y1642745D02*
G54D14*
D03*
X163195Y1226820D02*
G54D11*
D03*
X163195Y1277620D02*
G54D11*
D03*
X163195Y1252220D02*
G54D11*
D03*
X226695Y1290320D02*
G54D13*
D03*
X226695Y1210310D02*
G54D13*
D03*
X322300Y1312164D02*
G54D11*
D03*
X296901Y1286764D02*
G54D11*
D03*
X322300Y1261364D02*
G54D11*
D03*
G36*
X361064Y1660776D02*
X378076Y1660776D01*
X378076Y1643764D01*
X361064Y1643764D01*
X361064Y1660776D01*
G37*
X369570Y1601470D02*
G54D13*
D03*
G36*
X316614Y1606801D02*
X333626Y1606801D01*
X333626Y1589789D01*
X316614Y1589789D01*
X316614Y1606801D01*
G37*
X325120Y1649095D02*
G54D13*
D03*
X252095Y1585595D02*
G54D15*
D03*
X252095Y1661795D02*
G54D15*
D03*
X537845Y683895D02*
G54D13*
D03*
X537845Y603885D02*
G54D13*
D03*
X702945Y601345D02*
G54D13*
D03*
X702945Y681330D02*
G54D13*
D03*
X493395Y1312545D02*
G54D11*
D03*
X467995Y1287145D02*
G54D11*
D03*
X493395Y1261745D02*
G54D11*
D03*
G36*
X516639Y1590926D02*
X533651Y1590926D01*
X533651Y1573914D01*
X516639Y1573914D01*
X516639Y1590926D01*
G37*
X525145Y1633220D02*
G54D13*
D03*
X668020Y1217295D02*
G54D13*
D03*
X668020Y1242695D02*
G54D13*
D03*
X668020Y1293495D02*
G54D13*
D03*
X668020Y1318895D02*
G54D13*
D03*
X668020Y1369695D02*
G54D13*
D03*
X668020Y1395095D02*
G54D13*
D03*
X668020Y1445895D02*
G54D13*
D03*
X668020Y1471295D02*
G54D13*
D03*
X668020Y1522095D02*
G54D13*
D03*
X668020Y1547495D02*
G54D13*
D03*
X668020Y1598295D02*
G54D13*
D03*
X668020Y1623695D02*
G54D13*
D03*
X642620Y1217295D02*
G54D13*
D03*
X642620Y1242695D02*
G54D13*
D03*
X642620Y1293495D02*
G54D13*
D03*
X642620Y1318895D02*
G54D13*
D03*
X642620Y1369695D02*
G54D13*
D03*
X642620Y1395095D02*
G54D13*
D03*
X642620Y1445895D02*
G54D13*
D03*
X642620Y1471295D02*
G54D13*
D03*
X642620Y1522095D02*
G54D13*
D03*
X642620Y1547495D02*
G54D13*
D03*
X642620Y1598295D02*
G54D13*
D03*
G36*
X634114Y1632201D02*
X651126Y1632201D01*
X651126Y1615189D01*
X634114Y1615189D01*
X634114Y1632201D01*
G37*
X668020Y1268095D02*
G54D13*
D03*
X668020Y1344295D02*
G54D13*
D03*
X668020Y1420495D02*
G54D13*
D03*
X668020Y1496695D02*
G54D13*
D03*
X668020Y1572895D02*
G54D13*
D03*
X642620Y1268095D02*
G54D13*
D03*
X642620Y1344295D02*
G54D13*
D03*
X642620Y1420495D02*
G54D13*
D03*
X642620Y1496695D02*
G54D13*
D03*
X642620Y1572895D02*
G54D13*
D03*
G36*
X440439Y1622676D02*
X457451Y1622676D01*
X457451Y1605664D01*
X440439Y1605664D01*
X440439Y1622676D01*
G37*
X448945Y1563370D02*
G54D13*
D03*
X601345Y652145D02*
G54D13*
D03*
X601345Y626745D02*
G54D13*
D03*
X601345Y728345D02*
G54D13*
D03*
X601345Y702945D02*
G54D13*
D03*
X677545Y652145D02*
G54D13*
D03*
X677545Y626745D02*
G54D13*
D03*
X677545Y728345D02*
G54D13*
D03*
X677545Y702945D02*
G54D13*
D03*
X601345Y601345D02*
G54D13*
D03*
X601345Y677545D02*
G54D13*
D03*
G36*
X592839Y762251D02*
X609851Y762251D01*
X609851Y745239D01*
X592839Y745239D01*
X592839Y762251D01*
G37*
X677545Y601345D02*
G54D13*
D03*
X677545Y677545D02*
G54D13*
D03*
X677545Y753745D02*
G54D13*
D03*
X985520Y617220D02*
G54D11*
D03*
X985520Y697204D02*
G54D11*
D03*
X880745Y645795D02*
G54D13*
D03*
X880745Y620395D02*
G54D13*
D03*
X880745Y721995D02*
G54D13*
D03*
X880745Y696595D02*
G54D13*
D03*
X956945Y645795D02*
G54D13*
D03*
X956945Y620395D02*
G54D13*
D03*
X956945Y721995D02*
G54D13*
D03*
X956945Y696595D02*
G54D13*
D03*
X880745Y594995D02*
G54D13*
D03*
X880745Y671195D02*
G54D13*
D03*
G36*
X872239Y755901D02*
X889251Y755901D01*
X889251Y738889D01*
X872239Y738889D01*
X872239Y755901D01*
G37*
X956945Y594995D02*
G54D13*
D03*
X956945Y671195D02*
G54D13*
D03*
X956945Y747395D02*
G54D13*
D03*
X766445Y645795D02*
G54D13*
D03*
X766445Y620395D02*
G54D13*
D03*
X766445Y721995D02*
G54D13*
D03*
X766445Y696595D02*
G54D13*
D03*
X842645Y645795D02*
G54D13*
D03*
X842645Y620395D02*
G54D13*
D03*
X842645Y721995D02*
G54D13*
D03*
X842645Y696595D02*
G54D13*
D03*
X766445Y594995D02*
G54D13*
D03*
X766445Y671195D02*
G54D13*
D03*
G36*
X757939Y755901D02*
X774951Y755901D01*
X774951Y738889D01*
X757939Y738889D01*
X757939Y755901D01*
G37*
X842645Y594995D02*
G54D13*
D03*
X842645Y671195D02*
G54D13*
D03*
X842645Y747395D02*
G54D13*
D03*
X880745Y1299845D02*
G54D13*
D03*
X880745Y1274445D02*
G54D13*
D03*
X880745Y1376045D02*
G54D13*
D03*
X880745Y1350645D02*
G54D13*
D03*
X880745Y1452245D02*
G54D13*
D03*
X880745Y1426845D02*
G54D13*
D03*
G36*
X872239Y1511551D02*
X889251Y1511551D01*
X889251Y1494539D01*
X872239Y1494539D01*
X872239Y1511551D01*
G37*
X956945Y1274445D02*
G54D13*
D03*
X956945Y1299845D02*
G54D13*
D03*
X956945Y1350645D02*
G54D13*
D03*
X956945Y1376045D02*
G54D13*
D03*
X956945Y1426845D02*
G54D13*
D03*
X956945Y1452245D02*
G54D13*
D03*
X956945Y1503045D02*
G54D13*
D03*
X880745Y1401445D02*
G54D13*
D03*
X880745Y1325245D02*
G54D13*
D03*
X880745Y1477645D02*
G54D13*
D03*
X956945Y1325245D02*
G54D13*
D03*
X956945Y1401445D02*
G54D13*
D03*
X956945Y1477645D02*
G54D13*
D03*
X756920Y1299845D02*
G54D13*
D03*
X756920Y1274445D02*
G54D13*
D03*
X756920Y1376045D02*
G54D13*
D03*
X756920Y1350645D02*
G54D13*
D03*
X756920Y1452245D02*
G54D13*
D03*
X756920Y1426845D02*
G54D13*
D03*
G36*
X748414Y1511551D02*
X765426Y1511551D01*
X765426Y1494539D01*
X748414Y1494539D01*
X748414Y1511551D01*
G37*
X833120Y1274445D02*
G54D13*
D03*
X833120Y1299845D02*
G54D13*
D03*
X833120Y1350645D02*
G54D13*
D03*
X833120Y1376045D02*
G54D13*
D03*
X833120Y1426845D02*
G54D13*
D03*
X833120Y1452245D02*
G54D13*
D03*
X833120Y1503045D02*
G54D13*
D03*
X756920Y1401445D02*
G54D13*
D03*
X756920Y1325245D02*
G54D13*
D03*
X756920Y1477645D02*
G54D13*
D03*
X833120Y1325245D02*
G54D13*
D03*
X833120Y1401445D02*
G54D13*
D03*
X833120Y1477645D02*
G54D13*
D03*
X1312545Y121920D02*
G54D13*
D03*
X1312545Y41910D02*
G54D13*
D03*
X1439545Y1198245D02*
G54D13*
D03*
X1439545Y1278230D02*
G54D13*
D03*
X1525270Y998220D02*
G54D13*
D03*
X1525270Y972820D02*
G54D13*
D03*
X1525270Y1074420D02*
G54D13*
D03*
X1525270Y1049020D02*
G54D13*
D03*
X1601470Y998220D02*
G54D13*
D03*
X1601470Y972820D02*
G54D13*
D03*
X1601470Y1074420D02*
G54D13*
D03*
X1601470Y1049020D02*
G54D13*
D03*
X1525270Y947420D02*
G54D13*
D03*
X1525270Y1023620D02*
G54D13*
D03*
G36*
X1516764Y1108326D02*
X1533776Y1108326D01*
X1533776Y1091314D01*
X1516764Y1091314D01*
X1516764Y1108326D01*
G37*
X1601470Y947420D02*
G54D13*
D03*
X1601470Y1023620D02*
G54D13*
D03*
X1601470Y1099820D02*
G54D13*
D03*
X1833245Y741045D02*
G54D11*
D03*
X1833245Y715645D02*
G54D11*
D03*
X1833245Y817245D02*
G54D11*
D03*
X1833245Y791845D02*
G54D11*
D03*
X1833245Y893445D02*
G54D11*
D03*
X1833245Y868045D02*
G54D11*
D03*
G36*
X1824625Y698865D02*
X1841865Y698865D01*
X1841865Y681625D01*
X1824625Y681625D01*
X1824625Y698865D01*
G37*
X1833245Y842645D02*
G54D11*
D03*
X1833245Y766445D02*
G54D11*
D03*
X2134870Y58420D02*
G54D13*
D03*
X2134870Y138404D02*
G54D13*
D03*
X2036445Y1134745D02*
G54D11*
D03*
X2036445Y1109345D02*
G54D11*
D03*
X2036445Y1210945D02*
G54D11*
D03*
X2036445Y1185545D02*
G54D11*
D03*
X2036445Y1287145D02*
G54D11*
D03*
X2036445Y1261745D02*
G54D11*
D03*
G36*
X2027825Y1092565D02*
X2045065Y1092565D01*
X2045065Y1075325D01*
X2027825Y1075325D01*
X2027825Y1092565D01*
G37*
X2036445Y1236345D02*
G54D11*
D03*
X2036445Y1160145D02*
G54D11*
D03*
X2138045Y1134745D02*
G54D13*
D03*
X2138045Y1160145D02*
G54D13*
D03*
X2138045Y1210945D02*
G54D13*
D03*
X2138045Y1236345D02*
G54D13*
D03*
X2138045Y1287145D02*
G54D13*
D03*
X2138045Y1312545D02*
G54D13*
D03*
X2138045Y1363345D02*
G54D13*
D03*
X2138045Y1388745D02*
G54D13*
D03*
X2138045Y1439545D02*
G54D13*
D03*
X2138045Y1464945D02*
G54D13*
D03*
X2138045Y1515745D02*
G54D13*
D03*
X2138045Y1541145D02*
G54D13*
D03*
X2112645Y1134745D02*
G54D13*
D03*
X2112645Y1160145D02*
G54D13*
D03*
X2112645Y1210945D02*
G54D13*
D03*
X2112645Y1236345D02*
G54D13*
D03*
X2112645Y1287145D02*
G54D13*
D03*
X2112645Y1312545D02*
G54D13*
D03*
X2112645Y1363345D02*
G54D13*
D03*
X2112645Y1388745D02*
G54D13*
D03*
X2112645Y1439545D02*
G54D13*
D03*
X2112645Y1464945D02*
G54D13*
D03*
X2112645Y1515745D02*
G54D13*
D03*
G36*
X2104139Y1549651D02*
X2121151Y1549651D01*
X2121151Y1532639D01*
X2104139Y1532639D01*
X2104139Y1549651D01*
G37*
X2138045Y1185545D02*
G54D13*
D03*
X2138045Y1261745D02*
G54D13*
D03*
X2138045Y1337945D02*
G54D13*
D03*
X2138045Y1414145D02*
G54D13*
D03*
X2138045Y1490345D02*
G54D13*
D03*
X2112645Y1185545D02*
G54D13*
D03*
X2112645Y1261745D02*
G54D13*
D03*
X2112645Y1337945D02*
G54D13*
D03*
X2112645Y1414145D02*
G54D13*
D03*
X2112645Y1490345D02*
G54D13*
D03*
X525145Y372745D02*
G54D13*
D03*
X525145Y448945D02*
G54D13*
D03*
X525145Y423545D02*
G54D13*
D03*
X525145Y525145D02*
G54D13*
D03*
X525145Y499745D02*
G54D13*
D03*
X601345Y372745D02*
G54D13*
D03*
X601345Y448945D02*
G54D13*
D03*
X601345Y423545D02*
G54D13*
D03*
X601345Y525145D02*
G54D13*
D03*
X601345Y499745D02*
G54D13*
D03*
X525145Y474345D02*
G54D13*
D03*
X525145Y398145D02*
G54D13*
D03*
G36*
X516639Y559051D02*
X533651Y559051D01*
X533651Y542039D01*
X516639Y542039D01*
X516639Y559051D01*
G37*
X601345Y474345D02*
G54D13*
D03*
X601345Y398145D02*
G54D13*
D03*
X601345Y550545D02*
G54D13*
D03*
X1706245Y309245D02*
G54D11*
D03*
X1706245Y283845D02*
G54D11*
D03*
X1706245Y385445D02*
G54D11*
D03*
X1706245Y360045D02*
G54D11*
D03*
X1706245Y461645D02*
G54D11*
D03*
X1706245Y436245D02*
G54D11*
D03*
X1706245Y537845D02*
G54D11*
D03*
X1706245Y512445D02*
G54D11*
D03*
X1706245Y614045D02*
G54D11*
D03*
X1706245Y588645D02*
G54D11*
D03*
X1706245Y690245D02*
G54D11*
D03*
X1706245Y664845D02*
G54D11*
D03*
X1706245Y766445D02*
G54D11*
D03*
X1706245Y741045D02*
G54D11*
D03*
X1706245Y842645D02*
G54D11*
D03*
X1706245Y817245D02*
G54D11*
D03*
X1706245Y918845D02*
G54D11*
D03*
X1706245Y893445D02*
G54D11*
D03*
X1706245Y995045D02*
G54D11*
D03*
X1706245Y969645D02*
G54D11*
D03*
X1757045Y309245D02*
G54D11*
D03*
X1757045Y283845D02*
G54D11*
D03*
X1757045Y385445D02*
G54D11*
D03*
X1757045Y360045D02*
G54D11*
D03*
X1757045Y461645D02*
G54D11*
D03*
X1757045Y436245D02*
G54D11*
D03*
X1757045Y537845D02*
G54D11*
D03*
X1757045Y512445D02*
G54D11*
D03*
X1757045Y614045D02*
G54D11*
D03*
X1757045Y588645D02*
G54D11*
D03*
X1757045Y690245D02*
G54D11*
D03*
X1757045Y664845D02*
G54D11*
D03*
X1757045Y766445D02*
G54D11*
D03*
X1757045Y741045D02*
G54D11*
D03*
X1757045Y842645D02*
G54D11*
D03*
X1757045Y817245D02*
G54D11*
D03*
X1757045Y918845D02*
G54D11*
D03*
X1757045Y893445D02*
G54D11*
D03*
X1757045Y995045D02*
G54D11*
D03*
X1757045Y969645D02*
G54D11*
D03*
X1706245Y334645D02*
G54D11*
D03*
X1706245Y258445D02*
G54D11*
D03*
X1706245Y639445D02*
G54D11*
D03*
X1706245Y563245D02*
G54D11*
D03*
X1706245Y487045D02*
G54D11*
D03*
X1706245Y410845D02*
G54D11*
D03*
X1706245Y944245D02*
G54D11*
D03*
X1706245Y868045D02*
G54D11*
D03*
X1706245Y791845D02*
G54D11*
D03*
X1706245Y715645D02*
G54D11*
D03*
X1706245Y1020445D02*
G54D11*
D03*
X1757045Y334645D02*
G54D11*
D03*
X1757045Y258445D02*
G54D11*
D03*
X1757045Y639445D02*
G54D11*
D03*
X1757045Y563245D02*
G54D11*
D03*
X1757045Y487045D02*
G54D11*
D03*
X1757045Y410845D02*
G54D11*
D03*
X1757045Y944245D02*
G54D11*
D03*
X1757045Y868045D02*
G54D11*
D03*
X1757045Y791845D02*
G54D11*
D03*
X1757045Y715645D02*
G54D11*
D03*
X1757045Y1020445D02*
G54D11*
D03*
X2112645Y309245D02*
G54D11*
D03*
X2112645Y283845D02*
G54D11*
D03*
X2112645Y385445D02*
G54D11*
D03*
X2112645Y360045D02*
G54D11*
D03*
X2112645Y461645D02*
G54D11*
D03*
X2112645Y436245D02*
G54D11*
D03*
X2112645Y537845D02*
G54D11*
D03*
X2112645Y512445D02*
G54D11*
D03*
X2112645Y614045D02*
G54D11*
D03*
X2112645Y588645D02*
G54D11*
D03*
X2112645Y690245D02*
G54D11*
D03*
X2112645Y664845D02*
G54D11*
D03*
X2112645Y766445D02*
G54D11*
D03*
X2112645Y741045D02*
G54D11*
D03*
X2112645Y842645D02*
G54D11*
D03*
X2112645Y817245D02*
G54D11*
D03*
X2112645Y918845D02*
G54D11*
D03*
X2112645Y893445D02*
G54D11*
D03*
X2112645Y995045D02*
G54D11*
D03*
X2112645Y969645D02*
G54D11*
D03*
X2163445Y309245D02*
G54D11*
D03*
X2163445Y283845D02*
G54D11*
D03*
X2163445Y385445D02*
G54D11*
D03*
X2163445Y360045D02*
G54D11*
D03*
X2163445Y461645D02*
G54D11*
D03*
X2163445Y436245D02*
G54D11*
D03*
X2163445Y537845D02*
G54D11*
D03*
X2163445Y512445D02*
G54D11*
D03*
X2163445Y614045D02*
G54D11*
D03*
X2163445Y588645D02*
G54D11*
D03*
X2163445Y690245D02*
G54D11*
D03*
X2163445Y664845D02*
G54D11*
D03*
X2163445Y766445D02*
G54D11*
D03*
X2163445Y741045D02*
G54D11*
D03*
X2163445Y842645D02*
G54D11*
D03*
X2163445Y817245D02*
G54D11*
D03*
X2163445Y918845D02*
G54D11*
D03*
X2163445Y893445D02*
G54D11*
D03*
X2163445Y995045D02*
G54D11*
D03*
X2163445Y969645D02*
G54D11*
D03*
X2112645Y334645D02*
G54D11*
D03*
X2112645Y258445D02*
G54D11*
D03*
X2112645Y639445D02*
G54D11*
D03*
X2112645Y563245D02*
G54D11*
D03*
X2112645Y487045D02*
G54D11*
D03*
X2112645Y410845D02*
G54D11*
D03*
X2112645Y944245D02*
G54D11*
D03*
X2112645Y868045D02*
G54D11*
D03*
X2112645Y791845D02*
G54D11*
D03*
X2112645Y715645D02*
G54D11*
D03*
X2112645Y1020445D02*
G54D11*
D03*
X2163445Y334645D02*
G54D11*
D03*
X2163445Y258445D02*
G54D11*
D03*
X2163445Y639445D02*
G54D11*
D03*
X2163445Y563245D02*
G54D11*
D03*
X2163445Y487045D02*
G54D11*
D03*
X2163445Y410845D02*
G54D11*
D03*
X2163445Y944245D02*
G54D11*
D03*
X2163445Y868045D02*
G54D11*
D03*
X2163445Y791845D02*
G54D11*
D03*
X2163445Y715645D02*
G54D11*
D03*
X2163445Y1020445D02*
G54D11*
D03*
X106045Y1055370D02*
G54D13*
D03*
X186030Y1055370D02*
G54D13*
D03*
G36*
X392700Y1384665D02*
X409940Y1384665D01*
X409940Y1367425D01*
X392700Y1367425D01*
X392700Y1384665D01*
G37*
X401320Y1350645D02*
G54D11*
D03*
X1690370Y86995D02*
G54D13*
D03*
X1610360Y86995D02*
G54D13*
D03*
X1607820Y150495D02*
G54D13*
D03*
X1687804Y150495D02*
G54D13*
D03*
X1090295Y144145D02*
G54D13*
D03*
X1010285Y144145D02*
G54D13*
D03*
G36*
X1351664Y295526D02*
X1368676Y295526D01*
X1368676Y278514D01*
X1351664Y278514D01*
X1351664Y295526D01*
G37*
X1309370Y287020D02*
G54D13*
D03*
X1347470Y737870D02*
G54D13*
D03*
X1427454Y737870D02*
G54D13*
D03*
X1582420Y909320D02*
G54D13*
D03*
X1662404Y909320D02*
G54D13*
D03*
G36*
X113300Y1035415D02*
X130540Y1035415D01*
X130540Y1018175D01*
X113300Y1018175D01*
X113300Y1035415D01*
G37*
X172720Y1026795D02*
G54D11*
D03*
X344170Y1410970D02*
G54D13*
D03*
X424154Y1410970D02*
G54D13*
D03*
G36*
X113414Y1349626D02*
X130426Y1349626D01*
X130426Y1332614D01*
X113414Y1332614D01*
X113414Y1349626D01*
G37*
X172720Y1341120D02*
G54D13*
D03*
X515620Y1442720D02*
G54D13*
D03*
X541020Y1442720D02*
G54D13*
D03*
X439420Y1442720D02*
G54D13*
D03*
X464820Y1442720D02*
G54D13*
D03*
X363220Y1442720D02*
G54D13*
D03*
X388620Y1442720D02*
G54D13*
D03*
G36*
X303914Y1451226D02*
X320926Y1451226D01*
X320926Y1434214D01*
X303914Y1434214D01*
X303914Y1451226D01*
G37*
X541020Y1518920D02*
G54D13*
D03*
X515620Y1518920D02*
G54D13*
D03*
X464820Y1518920D02*
G54D13*
D03*
X439420Y1518920D02*
G54D13*
D03*
X388620Y1518920D02*
G54D13*
D03*
X363220Y1518920D02*
G54D13*
D03*
X312420Y1518920D02*
G54D13*
D03*
X414020Y1442720D02*
G54D13*
D03*
X490220Y1442720D02*
G54D13*
D03*
X337820Y1442720D02*
G54D13*
D03*
X490220Y1518920D02*
G54D13*
D03*
X414020Y1518920D02*
G54D13*
D03*
X337820Y1518920D02*
G54D13*
D03*
X1607820Y118745D02*
G54D13*
D03*
X1687804Y118745D02*
G54D13*
D03*
X1303020Y337820D02*
G54D13*
D03*
X1430020Y337820D02*
G54D13*
D03*
X1884045Y83820D02*
G54D13*
D03*
X1909445Y83820D02*
G54D13*
D03*
X1807845Y83820D02*
G54D13*
D03*
X1833245Y83820D02*
G54D13*
D03*
X1884045Y160020D02*
G54D13*
D03*
X1909445Y160020D02*
G54D13*
D03*
X1807845Y160020D02*
G54D13*
D03*
X1833245Y160020D02*
G54D13*
D03*
X1934845Y83820D02*
G54D13*
D03*
X1858645Y83820D02*
G54D13*
D03*
G36*
X1773939Y92326D02*
X1790951Y92326D01*
X1790951Y75314D01*
X1773939Y75314D01*
X1773939Y92326D01*
G37*
X1934845Y160020D02*
G54D13*
D03*
X1858645Y160020D02*
G54D13*
D03*
X1782445Y160020D02*
G54D13*
D03*
X1331595Y407670D02*
G54D13*
D03*
X1411580Y407670D02*
G54D13*
D03*
X1312545Y585470D02*
G54D13*
D03*
X1388745Y585470D02*
G54D13*
D03*
X1363345Y585470D02*
G54D13*
D03*
X1464945Y585470D02*
G54D13*
D03*
X1439545Y585470D02*
G54D13*
D03*
X1541145Y585470D02*
G54D13*
D03*
X1515745Y585470D02*
G54D13*
D03*
X1617345Y585470D02*
G54D13*
D03*
X1591945Y585470D02*
G54D13*
D03*
X1312545Y433070D02*
G54D13*
D03*
X1388745Y433070D02*
G54D13*
D03*
X1363345Y433070D02*
G54D13*
D03*
X1464945Y433070D02*
G54D13*
D03*
X1439545Y433070D02*
G54D13*
D03*
X1541145Y433070D02*
G54D13*
D03*
X1515745Y433070D02*
G54D13*
D03*
X1617345Y433070D02*
G54D13*
D03*
X1591945Y433070D02*
G54D13*
D03*
X1490345Y585470D02*
G54D13*
D03*
X1414145Y585470D02*
G54D13*
D03*
X1337945Y585470D02*
G54D13*
D03*
G36*
X1634239Y593976D02*
X1651251Y593976D01*
X1651251Y576964D01*
X1634239Y576964D01*
X1634239Y593976D01*
G37*
X1566545Y585470D02*
G54D13*
D03*
X1490345Y433070D02*
G54D13*
D03*
X1414145Y433070D02*
G54D13*
D03*
X1337945Y433070D02*
G54D13*
D03*
X1642745Y433070D02*
G54D13*
D03*
X1566545Y433070D02*
G54D13*
D03*
X1207770Y528320D02*
G54D13*
D03*
X1207770Y502920D02*
G54D13*
D03*
X1207770Y452120D02*
G54D13*
D03*
X1207770Y426720D02*
G54D13*
D03*
X1156970Y579120D02*
G54D13*
D03*
X1131570Y579120D02*
G54D13*
D03*
X1156970Y426720D02*
G54D13*
D03*
X1131570Y426720D02*
G54D13*
D03*
X1080770Y579120D02*
G54D13*
D03*
X1055370Y579120D02*
G54D13*
D03*
X1055370Y528320D02*
G54D13*
D03*
X1055370Y502920D02*
G54D13*
D03*
X1080770Y426720D02*
G54D13*
D03*
X1055370Y452120D02*
G54D13*
D03*
X1055370Y426720D02*
G54D13*
D03*
X1207770Y553720D02*
G54D13*
D03*
X1207770Y477520D02*
G54D13*
D03*
X1156970Y553720D02*
G54D13*
D03*
X1131570Y553720D02*
G54D13*
D03*
X1156970Y401320D02*
G54D13*
D03*
X1131570Y401320D02*
G54D13*
D03*
X1080770Y553720D02*
G54D13*
D03*
X1055370Y553720D02*
G54D13*
D03*
X1055370Y477520D02*
G54D13*
D03*
X1080770Y401320D02*
G54D13*
D03*
X1055370Y401320D02*
G54D13*
D03*
X1182370Y579120D02*
G54D13*
D03*
X1106170Y579120D02*
G54D13*
D03*
X1182370Y528320D02*
G54D13*
D03*
X1182370Y502920D02*
G54D13*
D03*
X1182370Y452120D02*
G54D13*
D03*
X1182370Y426720D02*
G54D13*
D03*
X1106170Y426720D02*
G54D13*
D03*
X1029970Y528320D02*
G54D13*
D03*
X1029970Y502920D02*
G54D13*
D03*
X1029970Y452120D02*
G54D13*
D03*
X1029970Y426720D02*
G54D13*
D03*
X1182370Y553720D02*
G54D13*
D03*
G36*
X1173864Y486026D02*
X1190876Y486026D01*
X1190876Y469014D01*
X1173864Y469014D01*
X1173864Y486026D01*
G37*
X1106170Y553720D02*
G54D13*
D03*
X1182370Y401320D02*
G54D13*
D03*
X1106170Y401320D02*
G54D13*
D03*
X1029970Y553720D02*
G54D13*
D03*
X1029970Y477520D02*
G54D13*
D03*
X1582420Y877570D02*
G54D13*
D03*
X1662404Y877570D02*
G54D13*
D03*
X1058545Y725170D02*
G54D11*
D03*
X978535Y725170D02*
G54D11*
D03*
X1557020Y1163320D02*
G54D13*
D03*
X1637004Y1163320D02*
G54D13*
D03*
X1585595Y1236345D02*
G54D13*
D03*
X1610995Y1236345D02*
G54D13*
D03*
X1585595Y1210945D02*
G54D13*
D03*
X1610995Y1210945D02*
G54D13*
D03*
X1509395Y1236345D02*
G54D13*
D03*
X1534795Y1236345D02*
G54D13*
D03*
G36*
X1500889Y1219451D02*
X1517901Y1219451D01*
X1517901Y1202439D01*
X1500889Y1202439D01*
X1500889Y1219451D01*
G37*
X1534795Y1210945D02*
G54D13*
D03*
X1560195Y1236345D02*
G54D13*
D03*
X1560195Y1210945D02*
G54D13*
D03*
X1579245Y1325245D02*
G54D13*
D03*
X1579245Y1401445D02*
G54D13*
D03*
X1579245Y1376045D02*
G54D13*
D03*
X1579245Y1477645D02*
G54D13*
D03*
X1579245Y1452245D02*
G54D13*
D03*
X1655445Y1325245D02*
G54D13*
D03*
X1655445Y1401445D02*
G54D13*
D03*
X1655445Y1376045D02*
G54D13*
D03*
X1655445Y1477645D02*
G54D13*
D03*
X1655445Y1452245D02*
G54D13*
D03*
X1579245Y1426845D02*
G54D13*
D03*
X1579245Y1350645D02*
G54D13*
D03*
G36*
X1570739Y1511551D02*
X1587751Y1511551D01*
X1587751Y1494539D01*
X1570739Y1494539D01*
X1570739Y1511551D01*
G37*
X1655445Y1426845D02*
G54D13*
D03*
X1655445Y1350645D02*
G54D13*
D03*
X1655445Y1503045D02*
G54D13*
D03*
X1909445Y1337945D02*
G54D13*
D03*
X1909445Y1414145D02*
G54D13*
D03*
X1909445Y1388745D02*
G54D13*
D03*
X1909445Y1490345D02*
G54D13*
D03*
X1909445Y1464945D02*
G54D13*
D03*
X1985645Y1337945D02*
G54D13*
D03*
X1985645Y1414145D02*
G54D13*
D03*
X1985645Y1388745D02*
G54D13*
D03*
X1985645Y1490345D02*
G54D13*
D03*
X1985645Y1464945D02*
G54D13*
D03*
X1909445Y1439545D02*
G54D13*
D03*
X1909445Y1363345D02*
G54D13*
D03*
G36*
X1900939Y1524251D02*
X1917951Y1524251D01*
X1917951Y1507239D01*
X1900939Y1507239D01*
X1900939Y1524251D01*
G37*
X1985645Y1439545D02*
G54D13*
D03*
X1985645Y1363345D02*
G54D13*
D03*
X1985645Y1515745D02*
G54D13*
D03*
X78968Y960120D02*
G54D16*
D03*
X158166Y960120D02*
G54D16*
D03*
X237363Y960120D02*
G54D16*
D03*
X316560Y960120D02*
G54D16*
D03*
X395757Y960120D02*
G54D16*
D03*
X474954Y960120D02*
G54D16*
D03*
X276962Y960120D02*
G54D16*
D03*
X39370Y960120D02*
G54D16*
D03*
X118567Y960120D02*
G54D16*
D03*
X197764Y960120D02*
G54D16*
D03*
X356159Y960120D02*
G54D16*
D03*
X435356Y960120D02*
G54D16*
D03*
X408153Y1312164D02*
G54D11*
D03*
X382752Y1286764D02*
G54D11*
D03*
X408153Y1261364D02*
G54D11*
D03*
G36*
X122939Y1635376D02*
X139951Y1635376D01*
X139951Y1618364D01*
X122939Y1618364D01*
X122939Y1635376D01*
G37*
X182245Y1626870D02*
G54D13*
D03*
X1388745Y106045D02*
G54D13*
D03*
X1388745Y80645D02*
G54D13*
D03*
X1363345Y106045D02*
G54D13*
D03*
X1363345Y80645D02*
G54D13*
D03*
X1388745Y182245D02*
G54D13*
D03*
X1388745Y156845D02*
G54D13*
D03*
G36*
X1354839Y190751D02*
X1371851Y190751D01*
X1371851Y173739D01*
X1354839Y173739D01*
X1354839Y190751D01*
G37*
X1363345Y156845D02*
G54D13*
D03*
X1388745Y131445D02*
G54D13*
D03*
X1363345Y131445D02*
G54D13*
D03*
X1960245Y42545D02*
G54D13*
D03*
X1884045Y42545D02*
G54D13*
D03*
X1909445Y42545D02*
G54D13*
D03*
X1807845Y42545D02*
G54D13*
D03*
X1833245Y42545D02*
G54D13*
D03*
X1731645Y42545D02*
G54D13*
D03*
X1757045Y42545D02*
G54D13*
D03*
X1655445Y42545D02*
G54D13*
D03*
X1680845Y42545D02*
G54D13*
D03*
X1579245Y42545D02*
G54D13*
D03*
X1604645Y42545D02*
G54D13*
D03*
X1503045Y42545D02*
G54D13*
D03*
X1528445Y42545D02*
G54D13*
D03*
X1960245Y194945D02*
G54D13*
D03*
X1884045Y194945D02*
G54D13*
D03*
X1909445Y194945D02*
G54D13*
D03*
X1807845Y194945D02*
G54D13*
D03*
X1833245Y194945D02*
G54D13*
D03*
X1731645Y194945D02*
G54D13*
D03*
X1757045Y194945D02*
G54D13*
D03*
X1655445Y194945D02*
G54D13*
D03*
X1680845Y194945D02*
G54D13*
D03*
X1579245Y194945D02*
G54D13*
D03*
X1604645Y194945D02*
G54D13*
D03*
X1503045Y194945D02*
G54D13*
D03*
X1528445Y194945D02*
G54D13*
D03*
X1706245Y42545D02*
G54D13*
D03*
X1782445Y42545D02*
G54D13*
D03*
X1858645Y42545D02*
G54D13*
D03*
X1934845Y42545D02*
G54D13*
D03*
G36*
X1469139Y51051D02*
X1486151Y51051D01*
X1486151Y34039D01*
X1469139Y34039D01*
X1469139Y51051D01*
G37*
X1553845Y42545D02*
G54D13*
D03*
X1630045Y42545D02*
G54D13*
D03*
X1706245Y194945D02*
G54D13*
D03*
X1782445Y194945D02*
G54D13*
D03*
X1858645Y194945D02*
G54D13*
D03*
X1934845Y194945D02*
G54D13*
D03*
X1477645Y194945D02*
G54D13*
D03*
X1553845Y194945D02*
G54D13*
D03*
X1630045Y194945D02*
G54D13*
D03*
X1728470Y1610995D02*
G54D11*
D03*
X1753870Y1610995D02*
G54D11*
D03*
X1652270Y1610995D02*
G54D11*
D03*
X1677670Y1610995D02*
G54D11*
D03*
X1576070Y1610995D02*
G54D11*
D03*
X1601470Y1610995D02*
G54D11*
D03*
X1499870Y1610995D02*
G54D11*
D03*
X1525270Y1610995D02*
G54D11*
D03*
X1423670Y1610995D02*
G54D11*
D03*
X1449070Y1610995D02*
G54D11*
D03*
X1347470Y1610995D02*
G54D11*
D03*
X1372870Y1610995D02*
G54D11*
D03*
X1271270Y1610995D02*
G54D11*
D03*
X1296670Y1610995D02*
G54D11*
D03*
X1195070Y1610995D02*
G54D11*
D03*
X1220470Y1610995D02*
G54D11*
D03*
X1118870Y1610995D02*
G54D11*
D03*
X1144270Y1610995D02*
G54D11*
D03*
X1042670Y1610995D02*
G54D11*
D03*
X1068070Y1610995D02*
G54D11*
D03*
X1703070Y1610995D02*
G54D11*
D03*
X1398270Y1610995D02*
G54D11*
D03*
X1474470Y1610995D02*
G54D11*
D03*
X1550670Y1610995D02*
G54D11*
D03*
X1626870Y1610995D02*
G54D11*
D03*
X1093470Y1610995D02*
G54D11*
D03*
X1169670Y1610995D02*
G54D11*
D03*
X1245870Y1610995D02*
G54D11*
D03*
X1322070Y1610995D02*
G54D11*
D03*
X1017270Y1610995D02*
G54D11*
D03*
X1096645Y798195D02*
G54D13*
D03*
X1172845Y798195D02*
G54D13*
D03*
X1147445Y798195D02*
G54D13*
D03*
X1249045Y798195D02*
G54D13*
D03*
X1223645Y798195D02*
G54D13*
D03*
X1325245Y798195D02*
G54D13*
D03*
X1299845Y798195D02*
G54D13*
D03*
X1401445Y798195D02*
G54D13*
D03*
X1376045Y798195D02*
G54D13*
D03*
X1477645Y798195D02*
G54D13*
D03*
X1452245Y798195D02*
G54D13*
D03*
X1553845Y798195D02*
G54D13*
D03*
X1528445Y798195D02*
G54D13*
D03*
X1096645Y645795D02*
G54D13*
D03*
X1172845Y645795D02*
G54D13*
D03*
X1147445Y645795D02*
G54D13*
D03*
X1249045Y645795D02*
G54D13*
D03*
X1223645Y645795D02*
G54D13*
D03*
X1325245Y645795D02*
G54D13*
D03*
X1299845Y645795D02*
G54D13*
D03*
X1401445Y645795D02*
G54D13*
D03*
X1376045Y645795D02*
G54D13*
D03*
X1477645Y645795D02*
G54D13*
D03*
X1452245Y645795D02*
G54D13*
D03*
X1553845Y645795D02*
G54D13*
D03*
X1528445Y645795D02*
G54D13*
D03*
X1350645Y798195D02*
G54D13*
D03*
X1274445Y798195D02*
G54D13*
D03*
X1198245Y798195D02*
G54D13*
D03*
X1122045Y798195D02*
G54D13*
D03*
G36*
X1570739Y806701D02*
X1587751Y806701D01*
X1587751Y789689D01*
X1570739Y789689D01*
X1570739Y806701D01*
G37*
X1503045Y798195D02*
G54D13*
D03*
X1426845Y798195D02*
G54D13*
D03*
X1350645Y645795D02*
G54D13*
D03*
X1274445Y645795D02*
G54D13*
D03*
X1198245Y645795D02*
G54D13*
D03*
X1122045Y645795D02*
G54D13*
D03*
X1579245Y645795D02*
G54D13*
D03*
X1503045Y645795D02*
G54D13*
D03*
X1426845Y645795D02*
G54D13*
D03*
X1274445Y1160145D02*
G54D13*
D03*
X1299845Y1160145D02*
G54D13*
D03*
X1299845Y1134745D02*
G54D13*
D03*
X1299845Y1083945D02*
G54D13*
D03*
X1299845Y1058545D02*
G54D13*
D03*
X1299845Y1007745D02*
G54D13*
D03*
X1299845Y982345D02*
G54D13*
D03*
X1299845Y931545D02*
G54D13*
D03*
X1299845Y906145D02*
G54D13*
D03*
X1274445Y906145D02*
G54D13*
D03*
X1198245Y1160145D02*
G54D13*
D03*
X1223645Y1160145D02*
G54D13*
D03*
X1223645Y906145D02*
G54D13*
D03*
X1198245Y906145D02*
G54D13*
D03*
X1122045Y1160145D02*
G54D13*
D03*
X1147445Y1160145D02*
G54D13*
D03*
X1147445Y906145D02*
G54D13*
D03*
X1122045Y906145D02*
G54D13*
D03*
X1045845Y1134745D02*
G54D13*
D03*
X1045845Y1160145D02*
G54D13*
D03*
X1071245Y1160145D02*
G54D13*
D03*
X1045845Y1058545D02*
G54D13*
D03*
X1045845Y1083945D02*
G54D13*
D03*
X1045845Y982345D02*
G54D13*
D03*
X1045845Y1007745D02*
G54D13*
D03*
X1071245Y906145D02*
G54D13*
D03*
X1045845Y906145D02*
G54D13*
D03*
X1045845Y931545D02*
G54D13*
D03*
X1274445Y1185545D02*
G54D13*
D03*
X1299845Y1185545D02*
G54D13*
D03*
X1299845Y1109345D02*
G54D13*
D03*
X1299845Y1033145D02*
G54D13*
D03*
X1299845Y956945D02*
G54D13*
D03*
X1299845Y880745D02*
G54D13*
D03*
X1274445Y880745D02*
G54D13*
D03*
X1198245Y1185545D02*
G54D13*
D03*
X1223645Y1185545D02*
G54D13*
D03*
X1223645Y880745D02*
G54D13*
D03*
X1198245Y880745D02*
G54D13*
D03*
X1122045Y1185545D02*
G54D13*
D03*
X1147445Y1185545D02*
G54D13*
D03*
X1147445Y880745D02*
G54D13*
D03*
X1122045Y880745D02*
G54D13*
D03*
X1045845Y1033145D02*
G54D13*
D03*
X1045845Y1109345D02*
G54D13*
D03*
X1045845Y1185545D02*
G54D13*
D03*
X1071245Y1185545D02*
G54D13*
D03*
X1071245Y880745D02*
G54D13*
D03*
X1045845Y880745D02*
G54D13*
D03*
X1045845Y956945D02*
G54D13*
D03*
X1172845Y1160145D02*
G54D13*
D03*
X1249045Y1160145D02*
G54D13*
D03*
X1325245Y1160145D02*
G54D13*
D03*
X1325245Y1134745D02*
G54D13*
D03*
X1325245Y1083945D02*
G54D13*
D03*
X1325245Y1058545D02*
G54D13*
D03*
X1325245Y1007745D02*
G54D13*
D03*
X1325245Y982345D02*
G54D13*
D03*
X1325245Y931545D02*
G54D13*
D03*
X1325245Y906145D02*
G54D13*
D03*
X1249045Y906145D02*
G54D13*
D03*
X1172845Y906145D02*
G54D13*
D03*
X1020445Y1134745D02*
G54D13*
D03*
X1020445Y1160145D02*
G54D13*
D03*
X1096645Y1160145D02*
G54D13*
D03*
X1020445Y1058545D02*
G54D13*
D03*
X1020445Y1083945D02*
G54D13*
D03*
X1020445Y982345D02*
G54D13*
D03*
X1020445Y1007745D02*
G54D13*
D03*
X1096645Y906145D02*
G54D13*
D03*
X1020445Y906145D02*
G54D13*
D03*
X1020445Y931545D02*
G54D13*
D03*
X1172845Y1185545D02*
G54D13*
D03*
X1249045Y1185545D02*
G54D13*
D03*
X1325245Y1109345D02*
G54D13*
D03*
G36*
X1316739Y1041651D02*
X1333751Y1041651D01*
X1333751Y1024639D01*
X1316739Y1024639D01*
X1316739Y1041651D01*
G37*
X1325245Y956945D02*
G54D13*
D03*
X1249045Y880745D02*
G54D13*
D03*
X1172845Y880745D02*
G54D13*
D03*
X1020445Y1033145D02*
G54D13*
D03*
X1020445Y1109345D02*
G54D13*
D03*
X1096645Y1185545D02*
G54D13*
D03*
X1096645Y880745D02*
G54D13*
D03*
X1020445Y956945D02*
G54D13*
D03*
X1001395Y1306195D02*
G54D13*
D03*
X1001395Y1280795D02*
G54D13*
D03*
X1001395Y1382395D02*
G54D13*
D03*
X1001395Y1356995D02*
G54D13*
D03*
X1001395Y1458595D02*
G54D13*
D03*
X1001395Y1433195D02*
G54D13*
D03*
G36*
X992889Y1517901D02*
X1009901Y1517901D01*
X1009901Y1500889D01*
X992889Y1500889D01*
X992889Y1517901D01*
G37*
X1077595Y1280795D02*
G54D13*
D03*
X1077595Y1306195D02*
G54D13*
D03*
X1077595Y1356995D02*
G54D13*
D03*
X1077595Y1382395D02*
G54D13*
D03*
X1077595Y1433195D02*
G54D13*
D03*
X1077595Y1458595D02*
G54D13*
D03*
X1077595Y1509395D02*
G54D13*
D03*
X1001395Y1407795D02*
G54D13*
D03*
X1001395Y1331595D02*
G54D13*
D03*
X1001395Y1483995D02*
G54D13*
D03*
X1077595Y1331595D02*
G54D13*
D03*
X1077595Y1407795D02*
G54D13*
D03*
X1077595Y1483995D02*
G54D13*
D03*
X1909445Y1102995D02*
G54D13*
D03*
X1909445Y1179195D02*
G54D13*
D03*
X1909445Y1153795D02*
G54D13*
D03*
X1909445Y1255395D02*
G54D13*
D03*
X1909445Y1229995D02*
G54D13*
D03*
X1985645Y1102995D02*
G54D13*
D03*
X1985645Y1179195D02*
G54D13*
D03*
X1985645Y1153795D02*
G54D13*
D03*
X1985645Y1255395D02*
G54D13*
D03*
X1985645Y1229995D02*
G54D13*
D03*
X1909445Y1204595D02*
G54D13*
D03*
X1909445Y1128395D02*
G54D13*
D03*
G36*
X1900939Y1289301D02*
X1917951Y1289301D01*
X1917951Y1272289D01*
X1900939Y1272289D01*
X1900939Y1289301D01*
G37*
X1985645Y1204595D02*
G54D13*
D03*
X1985645Y1128395D02*
G54D13*
D03*
X1985645Y1280795D02*
G54D13*
D03*
X645795Y372745D02*
G54D13*
D03*
X645795Y448945D02*
G54D13*
D03*
X645795Y423545D02*
G54D13*
D03*
X645795Y525145D02*
G54D13*
D03*
X645795Y499745D02*
G54D13*
D03*
X721995Y372745D02*
G54D13*
D03*
X721995Y448945D02*
G54D13*
D03*
X721995Y423545D02*
G54D13*
D03*
X721995Y525145D02*
G54D13*
D03*
X721995Y499745D02*
G54D13*
D03*
X645795Y474345D02*
G54D13*
D03*
X645795Y398145D02*
G54D13*
D03*
G36*
X637289Y559051D02*
X654301Y559051D01*
X654301Y542039D01*
X637289Y542039D01*
X637289Y559051D01*
G37*
X721995Y474345D02*
G54D13*
D03*
X721995Y398145D02*
G54D13*
D03*
X721995Y550545D02*
G54D13*
D03*
X1909445Y309245D02*
G54D11*
D03*
X1909445Y283845D02*
G54D11*
D03*
X1909445Y385445D02*
G54D11*
D03*
X1909445Y360045D02*
G54D11*
D03*
X1909445Y461645D02*
G54D11*
D03*
X1909445Y436245D02*
G54D11*
D03*
X1909445Y537845D02*
G54D11*
D03*
X1909445Y512445D02*
G54D11*
D03*
X1909445Y614045D02*
G54D11*
D03*
X1909445Y588645D02*
G54D11*
D03*
X1909445Y690245D02*
G54D11*
D03*
X1909445Y664845D02*
G54D11*
D03*
X1909445Y766445D02*
G54D11*
D03*
X1909445Y741045D02*
G54D11*
D03*
X1909445Y842645D02*
G54D11*
D03*
X1909445Y817245D02*
G54D11*
D03*
X1909445Y918845D02*
G54D11*
D03*
X1909445Y893445D02*
G54D11*
D03*
X1909445Y995045D02*
G54D11*
D03*
X1909445Y969645D02*
G54D11*
D03*
X1960245Y309245D02*
G54D11*
D03*
X1960245Y283845D02*
G54D11*
D03*
X1960245Y385445D02*
G54D11*
D03*
X1960245Y360045D02*
G54D11*
D03*
X1960245Y461645D02*
G54D11*
D03*
X1960245Y436245D02*
G54D11*
D03*
X1960245Y537845D02*
G54D11*
D03*
X1960245Y512445D02*
G54D11*
D03*
X1960245Y614045D02*
G54D11*
D03*
X1960245Y588645D02*
G54D11*
D03*
X1960245Y690245D02*
G54D11*
D03*
X1960245Y664845D02*
G54D11*
D03*
X1960245Y766445D02*
G54D11*
D03*
X1960245Y741045D02*
G54D11*
D03*
X1960245Y842645D02*
G54D11*
D03*
X1960245Y817245D02*
G54D11*
D03*
X1960245Y918845D02*
G54D11*
D03*
X1960245Y893445D02*
G54D11*
D03*
X1960245Y995045D02*
G54D11*
D03*
X1960245Y969645D02*
G54D11*
D03*
X1909445Y334645D02*
G54D11*
D03*
X1909445Y258445D02*
G54D11*
D03*
X1909445Y639445D02*
G54D11*
D03*
X1909445Y563245D02*
G54D11*
D03*
X1909445Y487045D02*
G54D11*
D03*
X1909445Y410845D02*
G54D11*
D03*
X1909445Y944245D02*
G54D11*
D03*
X1909445Y868045D02*
G54D11*
D03*
X1909445Y791845D02*
G54D11*
D03*
X1909445Y715645D02*
G54D11*
D03*
X1909445Y1020445D02*
G54D11*
D03*
X1960245Y334645D02*
G54D11*
D03*
X1960245Y258445D02*
G54D11*
D03*
X1960245Y639445D02*
G54D11*
D03*
X1960245Y563245D02*
G54D11*
D03*
X1960245Y487045D02*
G54D11*
D03*
X1960245Y410845D02*
G54D11*
D03*
X1960245Y944245D02*
G54D11*
D03*
X1960245Y868045D02*
G54D11*
D03*
X1960245Y791845D02*
G54D11*
D03*
X1960245Y715645D02*
G54D11*
D03*
X1960245Y1020445D02*
G54D11*
D03*
X756920Y331470D02*
G54D13*
D03*
X833120Y331470D02*
G54D13*
D03*
X807720Y331470D02*
G54D13*
D03*
X909320Y331470D02*
G54D13*
D03*
X883920Y331470D02*
G54D13*
D03*
X985520Y331470D02*
G54D13*
D03*
X960120Y331470D02*
G54D13*
D03*
X1061720Y331470D02*
G54D13*
D03*
X1036320Y331470D02*
G54D13*
D03*
X1137920Y331470D02*
G54D13*
D03*
X1112520Y331470D02*
G54D13*
D03*
X1214120Y331470D02*
G54D13*
D03*
X1188720Y331470D02*
G54D13*
D03*
X756920Y179070D02*
G54D13*
D03*
X833120Y179070D02*
G54D13*
D03*
X807720Y179070D02*
G54D13*
D03*
X909320Y179070D02*
G54D13*
D03*
X883920Y179070D02*
G54D13*
D03*
X985520Y179070D02*
G54D13*
D03*
X960120Y179070D02*
G54D13*
D03*
X1061720Y179070D02*
G54D13*
D03*
X1036320Y179070D02*
G54D13*
D03*
X1137920Y179070D02*
G54D13*
D03*
X1112520Y179070D02*
G54D13*
D03*
X1214120Y179070D02*
G54D13*
D03*
X1188720Y179070D02*
G54D13*
D03*
X1010920Y331470D02*
G54D13*
D03*
X934720Y331470D02*
G54D13*
D03*
X858520Y331470D02*
G54D13*
D03*
X782320Y331470D02*
G54D13*
D03*
G36*
X1231014Y339976D02*
X1248026Y339976D01*
X1248026Y322964D01*
X1231014Y322964D01*
X1231014Y339976D01*
G37*
X1163320Y331470D02*
G54D13*
D03*
X1087120Y331470D02*
G54D13*
D03*
X1010920Y179070D02*
G54D13*
D03*
X934720Y179070D02*
G54D13*
D03*
X858520Y179070D02*
G54D13*
D03*
X782320Y179070D02*
G54D13*
D03*
X1239520Y179070D02*
G54D13*
D03*
X1163320Y179070D02*
G54D13*
D03*
X1087120Y179070D02*
G54D13*
D03*
X1099820Y83820D02*
G54D13*
D03*
X1074420Y83820D02*
G54D13*
D03*
X1023620Y83820D02*
G54D13*
D03*
X998220Y83820D02*
G54D13*
D03*
X947420Y83820D02*
G54D13*
D03*
X922020Y83820D02*
G54D13*
D03*
X871220Y83820D02*
G54D13*
D03*
X845820Y83820D02*
G54D13*
D03*
X795020Y83820D02*
G54D13*
D03*
X769620Y83820D02*
G54D13*
D03*
X718820Y83820D02*
G54D13*
D03*
X693420Y83820D02*
G54D13*
D03*
X1099820Y58420D02*
G54D13*
D03*
X1074420Y58420D02*
G54D13*
D03*
X1023620Y58420D02*
G54D13*
D03*
X998220Y58420D02*
G54D13*
D03*
X947420Y58420D02*
G54D13*
D03*
X922020Y58420D02*
G54D13*
D03*
X871220Y58420D02*
G54D13*
D03*
X845820Y58420D02*
G54D13*
D03*
X795020Y58420D02*
G54D13*
D03*
X769620Y58420D02*
G54D13*
D03*
X718820Y58420D02*
G54D13*
D03*
G36*
X684914Y66926D02*
X701926Y66926D01*
X701926Y49914D01*
X684914Y49914D01*
X684914Y66926D01*
G37*
X1049020Y83820D02*
G54D13*
D03*
X972820Y83820D02*
G54D13*
D03*
X896620Y83820D02*
G54D13*
D03*
X820420Y83820D02*
G54D13*
D03*
X744220Y83820D02*
G54D13*
D03*
X1049020Y58420D02*
G54D13*
D03*
X972820Y58420D02*
G54D13*
D03*
X896620Y58420D02*
G54D13*
D03*
X820420Y58420D02*
G54D13*
D03*
X744220Y58420D02*
G54D13*
D03*
G54D17*
X1501538Y378762D02*
X1501538Y393873D01*
X1507205Y393873D01*
X1509471Y392928D01*
X1510605Y391039D01*
X1510605Y381595D01*
X1509471Y379706D01*
X1507205Y378762D01*
X1501538Y378762D01*
G54D17*
X1523827Y378762D02*
X1515894Y378762D01*
X1515894Y393873D01*
X1523827Y393873D01*
G54D17*
X1515894Y386317D02*
X1523827Y386317D01*
G54D17*
X1529116Y378762D02*
X1534783Y393873D01*
X1540449Y378762D01*
G54D17*
X1531383Y384428D02*
X1538183Y384428D01*
G54D17*
X1550271Y378762D02*
X1550271Y393873D01*
G54D17*
X1545738Y393873D02*
X1554805Y393873D01*
G54D17*
X1560094Y378762D02*
X1560094Y393873D01*
G54D17*
X1569161Y378762D02*
X1569161Y393873D01*
G54D17*
X1560094Y386317D02*
X1569161Y386317D01*
G54D17*
X1584499Y378762D02*
X1584499Y393873D01*
G54D17*
X1579966Y393873D02*
X1589033Y393873D01*
G54D17*
X1603389Y391039D02*
X1603389Y381595D01*
X1602255Y379706D01*
X1599989Y378762D01*
X1597722Y378762D01*
X1595455Y379706D01*
X1594322Y381595D01*
X1594322Y391039D01*
X1595455Y392928D01*
X1597722Y393873D01*
X1599989Y393873D01*
X1602255Y392928D01*
X1603389Y391039D01*
G54D17*
X1499950Y350187D02*
X1499950Y365298D01*
X1509017Y350187D01*
X1509017Y365298D01*
G54D17*
X1514306Y350187D02*
X1519973Y365298D01*
X1525640Y350187D01*
G54D17*
X1516573Y355853D02*
X1523373Y355853D01*
G54D17*
X1535462Y350187D02*
X1535462Y365298D01*
G54D17*
X1530928Y365298D02*
X1539995Y365298D01*
G54D17*
X1554351Y362464D02*
X1554351Y353020D01*
X1553218Y351131D01*
X1550951Y350187D01*
X1548684Y350187D01*
X1546418Y351131D01*
X1545284Y353020D01*
X1545284Y362464D01*
X1546418Y364353D01*
X1548684Y365298D01*
X1550951Y365298D01*
X1553218Y364353D01*
X1554351Y362464D01*
G54D17*
X1565156Y350187D02*
X1570823Y365298D01*
X1576490Y350187D01*
G54D17*
X1567423Y355853D02*
X1574223Y355853D01*
G54D17*
X1581778Y350187D02*
X1581778Y365298D01*
X1590845Y350187D01*
X1590845Y365298D01*
G54D17*
X1596134Y350187D02*
X1596134Y365298D01*
X1601801Y365298D01*
X1604068Y364353D01*
X1605201Y362464D01*
X1605201Y353020D01*
X1604068Y351131D01*
X1601801Y350187D01*
X1596134Y350187D01*
G54D17*
X1501538Y321612D02*
X1501538Y336723D01*
X1509471Y336723D01*
G54D17*
X1501538Y329167D02*
X1509471Y329167D01*
G54D17*
X1514760Y321612D02*
X1520427Y336723D01*
X1526093Y321612D01*
G54D17*
X1517027Y327278D02*
X1523827Y327278D01*
G54D17*
X1531382Y324445D02*
X1532515Y322556D01*
X1534782Y321612D01*
X1537049Y321612D01*
X1539315Y322556D01*
X1540449Y324445D01*
X1540449Y326334D01*
X1539315Y328223D01*
X1537049Y329167D01*
X1534782Y329167D01*
X1532515Y330112D01*
X1531382Y332000D01*
X1531382Y333889D01*
X1532515Y335778D01*
X1534782Y336723D01*
X1537049Y336723D01*
X1539315Y335778D01*
X1540449Y333889D01*
G54D17*
X1554805Y324445D02*
X1553671Y322556D01*
X1551405Y321612D01*
X1549138Y321612D01*
X1546871Y322556D01*
X1545738Y324445D01*
X1545738Y333889D01*
X1546871Y335778D01*
X1549138Y336723D01*
X1551405Y336723D01*
X1553671Y335778D01*
X1554805Y333889D01*
G54D17*
X1560094Y321612D02*
X1560094Y336723D01*
G54D17*
X1565383Y324445D02*
X1566516Y322556D01*
X1568783Y321612D01*
X1571050Y321612D01*
X1573316Y322556D01*
X1574450Y324445D01*
X1574450Y326334D01*
X1573316Y328223D01*
X1571050Y329167D01*
X1568783Y329167D01*
X1566516Y330112D01*
X1565383Y332000D01*
X1565383Y333889D01*
X1566516Y335778D01*
X1568783Y336723D01*
X1571050Y336723D01*
X1573316Y335778D01*
X1574450Y333889D01*
G54D17*
X1584272Y321612D02*
X1584272Y336723D01*
G54D17*
X1579739Y336723D02*
X1588806Y336723D01*
G54D17*
X1594095Y324445D02*
X1595228Y322556D01*
X1597495Y321612D01*
X1599762Y321612D01*
X1602028Y322556D01*
X1603162Y324445D01*
X1603162Y326334D01*
X1602028Y328223D01*
X1599762Y329167D01*
X1597495Y329167D01*
X1595228Y330112D01*
X1594095Y332000D01*
X1594095Y333889D01*
X1595228Y335778D01*
X1597495Y336723D01*
X1599762Y336723D01*
X1602028Y335778D01*
X1603162Y333889D01*
X115570Y842650D02*
G54D12*
D03*
X166370Y842650D02*
G54D12*
D03*
X217170Y842650D02*
G54D12*
D03*
X356870Y385445D02*
G54D11*
D03*
X331470Y385445D02*
G54D11*
D03*
X433070Y385445D02*
G54D11*
D03*
X407670Y385445D02*
G54D11*
D03*
X306070Y385445D02*
G54D11*
D03*
X382270Y385445D02*
G54D11*
D03*
X344170Y664845D02*
G54D11*
D03*
X394970Y664845D02*
G54D11*
D03*
X433070Y842645D02*
G54D11*
D03*
X433070Y791448D02*
G54D11*
D03*
X433070Y740648D02*
G54D11*
D03*
X432673Y715645D02*
G54D11*
D03*
X52070Y690245D02*
G54D11*
D03*
X26670Y690245D02*
G54D11*
D03*
X128270Y690245D02*
G54D11*
D03*
X102870Y690245D02*
G54D11*
D03*
X204470Y690245D02*
G54D11*
D03*
X179070Y690245D02*
G54D11*
D03*
X255270Y690245D02*
G54D11*
D03*
X77470Y690245D02*
G54D11*
D03*
X153670Y690245D02*
G54D11*
D03*
X229870Y690245D02*
G54D11*
D03*
M02*
