; Drill file
; Format: 2.4 (00.0000)
M48
INCH
T01C0.024
T02C0.035
T03C0.038
T04C0.059
T05C0.0591
T06C0.079
T07C0.0846
T08C0.0984
T09C0.118
T10C0.1575
T11C0.1713
%
G05
G90
T01
X021780Y001380
X022770Y001580
X022770Y002370
X022770Y003180
X021780Y002780
X023370Y004580
X022570Y005780
X021380Y005170
X025580Y005980
X026580Y004970
X025780Y004380
X025980Y002370
X026580Y001980
X024580Y001980
X029380Y006180
X032280Y006570
X032770Y008180
X033970Y008380
X034580Y009780
X035180Y009980
X034170Y010970
X031780Y011770
X030780Y011370
X030380Y012180
X032370Y014270
X032970Y014310
X031580Y016430
X029170Y018770
X027380Y017380
X026580Y017920
X027370Y015930
X027300Y014450
X025780Y010580
X027370Y008970
X034170Y005570
X034170Y003980
X033370Y003980
X035780Y004770
X036880Y006370
X037770Y005980
X037970Y003980
X039280Y004170
X040980Y006370
X041780Y007970
X041570Y008970
X039380Y007970
X038570Y008380
X038170Y008970
X037970Y010380
X039780Y012180
X040370Y011370
X041170Y011980
X042180Y014170
X043570Y014380
X043670Y011980
X046280Y011770
X048270Y011570
X048970Y011570
X049380Y008770
X052370Y010180
X052980Y009170
X053570Y010380
X054870Y011170
X055370Y008380
X055770Y007770
X054180Y008380
X055770Y004580
X056570Y003980
X057980Y004380
X057980Y002970
X055580Y002370
X055370Y001380
X058170Y005780
X060980Y006180
X060980Y004970
X062770Y004170
X066570Y006570
X069570Y006770
X071970Y005570
X073670Y005370
X076970Y006770
X078170Y009780
X076570Y010670
X078570Y013770
X080980Y010670
X082580Y009780
X083980Y008380
X082970Y006570
X079840Y008680
X070770Y010180
X066170Y009980
X064180Y009980
X063080Y010970
X063570Y011370
X062180Y011370
X064570Y014380
X066170Y016670
X066170Y017780
X064870Y017980
X065180Y019780
X065180Y020380
X065980Y020380
X065180Y021580
X065580Y022770
X064180Y022480
X062980Y022370
X062980Y021780
X063670Y020980
X062370Y020180
X060370Y019980
X058970Y020180
X058380Y020180
X057980Y021180
X057770Y021780
X057280Y018970
X056170Y017980
X054180Y018570
X054180Y016570
X052180Y017580
X050770Y018770
X050180Y019780
X050180Y020580
X051170Y020180
X049180Y018370
X048400Y019760
X048780Y016570
X046570Y014580
X050770Y013770
X052370Y014170
X052580Y014980
X057180Y013970
X057980Y013970
X058170Y014780
X054180Y021180
X053170Y022570
X053170Y023570
X052180Y024380
X051680Y023970
X050180Y024170
X048780Y022970
X047770Y023170
X045080Y023770
X044380Y024170
X043170Y024170
X043080Y023370
X042280Y024670
X042580Y025180
X041570Y025380
X041570Y026580
X043170Y026380
X043780Y028380
X042770Y028570
X042370Y030180
X041380Y030680
X040580Y030380
X039580Y031430
X038570Y031970
X036970Y031580
X035980Y029420
X036780Y027370
X036780Y025780
X036780Y024380
X036580Y023420
X035180Y023970
X035980Y021430
X036380Y020980
X035380Y019780
X036780Y017780
X036580Y016770
X035980Y015970
X036970Y014980
X038280Y014580
X039380Y014980
X040770Y014780
X039870Y016880
X039170Y017980
X038970Y018770
X038770Y020270
X039380Y021970
X038370Y022370
X039980Y023770
X039380Y027770
X039980Y027970
X040370Y032370
X040980Y033570
X040180Y034980
X038970Y034170
X036970Y034780
X036380Y033970
X036780Y036780
X035980Y037970
X037170Y038170
X036970Y039780
X037370Y040370
X036180Y040770
X035180Y039170
X033570Y039780
X031380Y037370
X032080Y034780
X032080Y033680
X032570Y029170
X033770Y027170
X031780Y024980
X030870Y025420
X030800Y026580
X028570Y024980
X028120Y025420
X027170Y025180
X024980Y024780
X024980Y023570
X025580Y023370
X026970Y020980
X026970Y020180
X030180Y022570
X031780Y020780
X031780Y019980
X032570Y021230
X027770Y028170
X029130Y029380
X025980Y027170
X023170Y026180
X021780Y025780
X022370Y027770
X020580Y023970
X022570Y018570
X021780Y016170
X025580Y033170
X027370Y032970
X025980Y035380
X025780Y037280
X025380Y038370
X025580Y039780
X025180Y043220
X024380Y045370
X025780Y046170
X022680Y047180
X023770Y049780
X019980Y051170
X018610Y049780
X017280Y049180
X016170Y055980
X018570Y058930
X021580Y057370
X023170Y057580
X024380Y057370
X024780Y059380
X023770Y060370
X019780Y065580
X021580Y066570
X033370Y061780
X033970Y061380
X034780Y062370
X035580Y062770
X034580Y064180
X035180Y065370
X034700Y066170
X038370Y065770
X038370Y064970
X040770Y065580
X043570Y064570
X042980Y062770
X042370Y061570
X040370Y061380
X036780Y058670
X035380Y057180
X033970Y056170
X035780Y055180
X036180Y053080
X036180Y052180
X038570Y053170
X040580Y053970
X041170Y054420
X040580Y056570
X045580Y057580
X045580Y055180
X044780Y053670
X044780Y051040
X045980Y050980
X045180Y049180
X044570Y048780
X043970Y048780
X044380Y047770
X045180Y047980
X046380Y047980
X046680Y047070
X048970Y047370
X050980Y048380
X052180Y049380
X051780Y050800
X049970Y051060
X049380Y049780
X048380Y049780
X049780Y053670
X049380Y054230
X050580Y053480
X050770Y054570
X054380Y055580
X054570Y054380
X054570Y053780
X055370Y052180
X057580Y050800
X057580Y049380
X056970Y049180
X056970Y048170
X055580Y048170
X054180Y048170
X052980Y047980
X052180Y047180
X052580Y045180
X054180Y046570
X054570Y043570
X054570Y042180
X055770Y042770
X056380Y043170
X058170Y041380
X059180Y042770
X058380Y045180
X059970Y045180
X062370Y045370
X063780Y043170
X065580Y043570
X065770Y042770
X065980Y041780
X064970Y041380
X065370Y039980
X064180Y039870
X067770Y041380
X068380Y041970
X070580Y041380
X070580Y040180
X071170Y039670
X072770Y038170
X074570Y041380
X075370Y041170
X075980Y041970
X076380Y040980
X077980Y041570
X078170Y042160
X081580Y041570
X082170Y042370
X083480Y041380
X084980Y040980
X084980Y047770
X080680Y049180
X079780Y051780
X081370Y053170
X081370Y054180
X079380Y054680
X077180Y055770
X076780Y056570
X076570Y057770
X075770Y055370
X075770Y052180
X076780Y051570
X076570Y049570
X074280Y046970
X072180Y045580
X068970Y044970
X068560Y038370
X067770Y037590
X069970Y035180
X070770Y031780
X071570Y031670
X070180Y030980
X071170Y030020
X071380Y028370
X070770Y026580
X070980Y025670
X073170Y025180
X074070Y024670
X074780Y023680
X073170Y023680
X071570Y023170
X068480Y024280
X066780Y023680
X065580Y024780
X065980Y025380
X068380Y026270
X066570Y029730
X065770Y029170
X066280Y030670
X065580Y032770
X065180Y033970
X063780Y031970
X063780Y030380
X064180Y028680
X061680Y028770
X060080Y027570
X061380Y026780
X062370Y024780
X059780Y024580
X059180Y024780
X058480Y024580
X056970Y024580
X056170Y024580
X054970Y024170
X055580Y026580
X057370Y026580
X057930Y026180
X057680Y029280
X059380Y029170
X059680Y030180
X061170Y033570
X061380Y034780
X060180Y036180
X057980Y037570
X057770Y038770
X059380Y039280
X057180Y035180
X056570Y033570
X055980Y033570
X055180Y033770
X054780Y034580
X053970Y035980
X053970Y036970
X053570Y037770
X053970Y039660
X053570Y040980
X050180Y041170
X049970Y041970
X049380Y040180
X050180Y039670
X049380Y037570
X048670Y036780
X047580Y036780
X046170Y038170
X046190Y038770
X046380Y040160
X042680Y039170
X042180Y036780
X039170Y036380
X039170Y039170
X038370Y039380
X038570Y042180
X038970Y043780
X038570Y045580
X039380Y047370
X040370Y049290
X041570Y047770
X042180Y047980
X043170Y047580
X041970Y050980
X040370Y051430
X038570Y050670
X035980Y045370
X035380Y045180
X035580Y043930
X031970Y043670
X031970Y046170
X031580Y047180
X031780Y047770
X031780Y050180
X029170Y050670
X029170Y047180
X029380Y046170
X030180Y039980
X023770Y035580
X021670Y035070
X042580Y033170
X043780Y032570
X044570Y033170
X045980Y032770
X048170Y033370
X052370Y032770
X052580Y033770
X053570Y033370
X054180Y032370
X053380Y029980
X051570Y028170
X050770Y028770
X050980Y026380
X049180Y026580
X048570Y026580
X047370Y026180
X046780Y026970
X046570Y027570
X044680Y030180
X044650Y019270
X044570Y008180
X046280Y006570
X045580Y003780
X046570Y002780
X045180Y001380
X061380Y022170
X068780Y020670
X070770Y018370
X068270Y015580
X078970Y021180
X079380Y028170
X081170Y028680
X080180Y033170
X076380Y034170
X073570Y031780
X073570Y030780
X072980Y029580
X073380Y028970
X057370Y033170
X048570Y044470
X058780Y049780
X059780Y051060
X060370Y050980
X059780Y052180
X061570Y053380
X063780Y053570
X063380Y055180
X063970Y056170
X062980Y058780
X064570Y060290
X063170Y062770
X061570Y062370
X060770Y064380
X058570Y063970
X054780Y062370
X055180Y061570
X053780Y062580
X051970Y062370
X050270Y060290
X049570Y058780
X051170Y058780
X055080Y056680
X059180Y054680
X063570Y049380
X067770Y052770
X070580Y053380
X071070Y052180
X071970Y052770
X073240Y053270
X072580Y057180
X072370Y058880
X071970Y062580
X070370Y062980
X071570Y065180
X073380Y064780
X074780Y065180
X078170Y063570
X078170Y061780
X080980Y059970
X082170Y060670
X084980Y061380
X085180Y062980
X083670Y054180
X077580Y045980
X066570Y063970
X053170Y065370
X050370Y065180
X046380Y065980
X045770Y065980
X044970Y062580
X046380Y062180
X047180Y061780
X030780Y057680
T02
X020530Y005420
X020670Y006670
X020670Y007670
X020670Y008680
X020670Y009680
X020670Y010670
X020670Y011670
X020670Y012680
X020670Y014680
X020670Y015670
X020670Y016670
X020670Y017680
X020670Y018670
X020670Y019680
X020670Y020670
X020670Y021670
X021180Y023770
X022430Y023930
X023680Y023680
X023680Y024670
X023680Y025670
X023680Y026670
X023680Y027680
X023680Y028680
X023680Y029670
X022430Y027070
X021180Y026920
X026670Y026670
X026670Y025670
X026670Y024670
X026670Y023680
X027680Y023680
X028930Y023530
X030180Y023420
X030180Y024420
X030180Y025420
X030180Y026430
X030180Y027430
X030180Y028420
X030180Y029420
X030180Y031430
X030180Y032430
X030180Y033420
X030180Y034420
X030180Y035420
X030180Y036430
X030180Y037430
X030920Y039550
X030150Y040800
X030050Y042180
X030050Y043170
X030050Y044180
X030050Y045180
X030050Y046170
X030050Y047180
X030050Y048170
X029800Y050180
X029800Y051170
X029800Y052180
X029800Y053170
X029800Y054180
X029800Y055180
X029800Y056170
X029800Y057180
X029800Y058170
X029800Y059180
X032800Y059180
X032800Y058170
X032800Y057180
X032800Y056170
X032800Y055180
X032800Y054180
X032800Y053170
X032800Y052180
X032800Y051170
X032800Y050180
X034670Y050180
X034670Y051170
X034670Y052180
X034670Y053170
X034670Y054180
X034670Y055180
X034670Y056170
X034670Y057180
X034670Y058170
X034670Y059180
X037680Y059180
X037680Y058170
X037680Y057180
X037680Y056170
X037680Y055180
X037680Y054180
X037680Y053170
X037680Y052180
X037680Y051170
X037680Y050180
X039420Y050430
X039420Y051430
X039420Y052420
X039420Y053430
X039420Y054420
X039420Y055430
X039420Y056430
X039420Y057420
X039420Y058430
X039420Y059420
X042420Y059420
X042420Y058430
X042420Y057420
X042420Y056430
X042420Y055430
X042420Y054420
X042420Y053430
X042420Y052420
X042420Y051430
X042420Y050430
X043930Y052180
X043930Y053170
X043930Y054180
X043930Y055180
X043930Y056170
X043930Y057180
X043930Y058170
X043930Y059180
X046920Y059180
X046920Y058170
X046920Y057180
X046920Y056170
X046920Y055180
X046920Y054180
X046920Y053170
X046920Y052180
X048670Y052180
X048670Y053170
X048670Y054180
X048670Y055180
X048670Y056170
X048670Y057180
X048670Y058170
X048670Y059180
X051680Y059180
X051680Y058170
X051680Y057180
X051680Y056170
X051680Y055180
X051680Y054180
X051680Y053170
X051680Y052180
X053170Y052180
X053170Y053170
X053170Y054180
X053170Y055180
X053170Y056170
X053170Y057180
X053170Y058170
X053170Y059180
X056170Y059180
X056170Y058170
X056170Y057180
X056170Y056170
X056170Y055180
X056170Y054180
X056170Y053170
X056170Y052180
X057680Y052180
X057680Y053170
X057680Y054180
X057680Y055180
X057680Y056170
X057680Y057180
X057680Y058170
X057680Y059180
X060670Y059180
X060670Y058170
X060670Y057180
X060670Y056170
X060670Y055180
X060670Y054180
X060670Y053170
X060670Y052180
X062180Y052180
X062180Y053170
X062180Y054180
X062180Y055180
X062180Y056170
X062180Y057180
X062180Y058170
X062180Y059180
X065180Y059180
X065180Y058170
X065180Y057180
X065180Y056170
X065180Y055180
X065180Y054180
X065180Y053170
X065180Y052180
X066680Y052680
X066680Y051680
X066680Y053670
X066680Y054680
X066680Y055670
X066680Y056680
X066680Y057680
X066680Y058670
X066680Y059680
X066680Y060670
X069680Y060670
X069680Y059680
X069680Y058670
X069680Y057680
X069680Y056680
X069680Y055670
X069680Y054680
X069680Y053670
X069680Y052680
X069680Y051680
X071170Y052800
X071170Y053800
X071170Y054800
X071170Y055800
X071170Y056800
X071170Y057800
X071170Y058800
X071170Y059800
X073930Y059800
X073930Y058800
X073930Y057800
X073930Y056800
X073930Y055800
X073930Y054800
X073930Y053800
X073930Y052800
X075180Y052680
X075180Y053670
X075180Y054680
X075180Y055670
X075180Y056680
X075180Y057680
X075180Y058670
X075180Y059680
X074420Y060670
X074420Y063820
X078170Y059680
X078170Y058670
X078170Y057680
X078170Y056680
X078170Y055670
X078170Y054680
X078170Y053670
X078170Y052680
X078170Y050430
X078170Y049420
X078170Y048430
X078170Y047420
X078170Y046430
X078170Y045430
X078170Y044420
X078170Y043430
X075180Y043430
X075180Y044420
X075180Y045430
X075180Y046430
X075180Y047420
X075180Y048430
X075180Y049420
X075180Y050430
X074180Y049450
X073170Y049450
X072180Y049450
X071170Y049680
X071170Y048670
X071170Y047680
X071170Y046680
X071170Y045670
X071170Y044680
X071170Y043670
X071170Y042680
X068170Y042680
X068170Y043670
X068170Y044680
X068170Y045670
X068170Y046680
X068170Y047680
X068170Y048670
X068170Y049680
X067180Y049680
X066050Y049680
X063430Y048670
X062420Y048670
X062420Y047680
X063430Y047680
X061430Y047680
X060430Y047680
X060430Y048670
X059420Y048670
X059420Y047680
X061430Y048670
X061300Y045800
X061050Y044550
X060050Y043300
X060050Y042300
X060050Y041300
X060050Y040300
X060050Y039300
X060050Y038300
X060050Y037300
X059180Y036800
X059050Y035670
X058800Y034550
X056800Y034550
X056300Y035670
X056030Y036800
X056430Y038800
X058430Y038800
X057930Y040650
X059050Y040650
X059050Y043800
X057930Y043800
X057420Y045180
X055430Y045180
X054050Y045300
X052180Y045670
X051170Y045670
X050180Y045670
X050180Y046680
X051170Y046680
X051170Y044680
X051170Y043670
X051170Y042680
X051170Y041680
X051170Y040670
X051170Y039670
X051170Y038680
X051170Y037680
X051170Y036670
X051170Y035670
X050180Y035670
X050180Y034670
X051170Y034670
X052180Y035670
X052180Y036670
X052180Y037680
X052180Y038680
X052180Y039670
X052180Y040670
X052180Y041680
X052180Y042680
X052180Y043670
X052180Y044680
X049180Y045670
X048170Y045670
X047180Y045670
X047180Y046680
X048170Y046680
X049180Y046680
X046170Y046680
X045180Y046680
X045180Y045670
X046170Y045670
X044180Y045670
X044180Y046680
X043170Y046680
X042180Y046680
X042180Y045670
X041170Y045670
X041170Y044680
X041170Y043670
X041170Y042680
X041170Y041680
X041170Y040670
X041170Y039670
X041170Y038680
X041170Y037680
X041170Y036670
X041170Y035670
X042180Y035670
X042180Y034670
X041170Y034670
X040180Y035670
X040180Y036670
X040180Y037680
X040180Y038680
X040180Y039670
X040180Y040670
X040180Y041680
X040180Y042680
X040180Y043670
X040180Y044680
X040180Y045670
X041170Y046680
X043170Y045670
X037430Y045930
X037430Y046920
X037430Y047930
X037430Y044920
X037430Y043930
X037430Y042930
X037430Y041920
X034420Y041920
X034420Y042930
X034420Y043930
X034420Y044920
X034420Y045930
X034420Y046920
X034420Y047930
X033050Y048170
X033050Y047180
X033050Y046170
X033050Y045180
X033050Y044180
X033050Y043170
X033050Y042180
X033300Y040800
X032920Y039550
X033170Y037430
X033170Y036430
X033170Y035420
X033170Y034420
X033170Y033420
X033170Y032430
X033170Y031430
X034670Y031430
X034670Y032430
X034670Y033420
X034670Y034420
X034670Y035420
X034670Y036430
X034670Y037430
X037680Y037430
X037680Y036430
X037680Y035420
X037680Y034420
X037680Y033420
X037680Y032430
X037680Y031430
X037680Y029420
X037680Y028420
X037680Y027430
X037680Y026430
X037680Y025420
X037680Y024420
X037680Y023420
X037800Y021430
X037800Y020420
X037800Y019420
X037800Y018430
X037800Y017420
X037800Y016430
X037800Y015420
X037800Y013050
X038800Y013050
X039800Y013050
X040800Y013050
X041800Y013050
X042800Y013050
X043800Y013050
X044800Y013050
X045800Y013050
X046800Y013050
X047800Y013050
X048800Y013050
X050050Y013170
X051300Y013300
X051550Y011300
X050050Y010420
X051680Y009170
X053670Y007180
X054680Y007180
X054680Y006180
X053670Y006180
X053670Y005170
X053670Y004170
X054680Y004170
X054680Y003180
X053670Y003180
X054680Y005170
X056550Y005550
X056550Y006650
X058170Y007670
X059180Y007670
X060180Y007670
X061170Y007670
X062180Y007670
X063170Y007670
X064180Y007670
X065180Y007670
X066170Y007670
X067180Y007670
X068170Y007670
X069180Y007670
X070180Y007670
X071170Y007670
X072180Y007670
X073170Y007670
X074180Y007670
X075180Y007670
X076170Y007670
X077180Y007670
X076170Y006300
X075180Y006300
X074180Y006300
X073170Y006300
X072180Y006300
X071170Y006300
X070180Y006300
X068550Y006200
X067420Y006200
X066450Y005930
X066450Y004680
X066550Y003430
X067420Y003050
X068550Y003050
X068170Y001680
X069180Y001680
X070180Y001680
X071170Y001680
X072180Y001680
X073170Y001680
X074180Y001680
X075180Y001680
X076170Y001680
X077180Y001680
X076170Y003300
X075180Y003300
X074180Y003300
X073170Y003300
X072180Y003300
X071170Y003300
X070180Y003300
X067180Y001680
X066170Y001680
X065180Y001680
X064180Y001680
X063170Y001680
X062180Y001680
X061170Y001680
X060180Y001680
X059180Y001680
X058170Y001680
X056550Y002400
X059180Y003430
X059180Y004680
X059180Y005930
X058670Y008920
X058670Y010420
X060670Y010420
X060670Y008920
X062320Y005930
X063300Y005930
X063300Y004680
X062320Y004680
X062320Y003430
X063400Y003430
X056550Y009800
X053550Y011300
X056300Y013300
X056680Y014920
X055570Y016050
X055670Y017050
X054680Y017050
X053670Y017050
X052680Y017050
X051680Y017050
X052420Y016050
X054680Y014920
X056680Y017050
X057680Y017050
X058670Y017050
X059680Y017050
X060670Y017050
X061680Y017050
X062680Y017050
X063670Y017050
X064680Y017050
X061800Y019050
X061820Y021300
X061680Y023050
X060670Y023050
X059680Y023050
X058670Y023050
X057680Y023050
X056680Y023050
X055670Y023050
X054680Y023050
X053670Y023050
X052680Y023050
X051680Y023050
X052180Y025420
X051170Y025420
X050180Y025420
X049180Y025420
X048170Y025420
X047180Y025420
X046170Y025420
X045180Y025420
X044180Y025420
X043170Y025420
X044550Y027300
X044550Y028680
X044180Y031430
X043170Y031430
X045180Y031430
X046170Y031430
X047180Y031430
X048170Y031430
X049180Y031430
X050180Y031430
X051170Y031430
X052180Y031430
X053170Y031430
X054180Y031430
X055180Y031430
X056170Y031430
X057180Y031430
X058170Y031430
X059180Y031430
X060180Y031430
X061170Y031430
X062180Y031430
X062300Y034550
X062300Y035800
X063050Y037300
X063050Y038300
X063050Y039300
X063050Y040300
X063050Y041300
X063050Y042300
X063050Y043300
X063050Y044550
X064450Y045800
X065050Y044300
X065050Y042300
X065300Y040700
X064050Y040700
X064050Y037550
X065300Y037550
X065450Y035800
X065450Y034550
X070670Y036800
X070670Y037920
X073820Y037920
X073820Y036800
X078550Y037300
X078550Y036180
X081700Y036180
X081700Y037300
X080800Y030300
X079550Y030300
X079550Y027150
X080800Y027150
X070670Y027280
X070670Y030420
X064680Y023050
X063670Y023050
X062680Y023050
X062180Y025420
X061170Y025420
X060180Y025420
X059180Y025420
X058170Y025420
X057180Y025420
X056170Y025420
X055180Y025420
X054180Y025420
X053170Y025420
X054050Y027550
X053050Y029050
X056200Y029050
X057200Y027550
X058670Y021300
X058650Y019050
X049680Y017800
X049680Y015800
X047550Y016800
X047550Y017800
X047550Y018800
X047550Y019800
X047550Y020800
X047550Y021800
X046550Y021800
X046550Y022800
X045550Y022800
X044550Y022800
X044550Y021800
X045550Y021800
X046550Y020800
X046550Y019800
X046550Y018800
X046550Y017800
X046550Y016800
X046550Y015800
X045550Y015800
X044550Y015800
X044550Y016800
X045550Y016800
X043550Y016800
X042550Y016800
X041550Y016800
X041550Y017800
X041550Y018800
X041550Y019800
X041550Y020800
X041550Y021800
X041550Y022800
X042550Y022800
X042550Y021800
X043550Y021800
X043550Y022800
X040550Y021800
X040550Y020800
X040550Y019800
X040550Y018800
X040550Y017800
X040550Y016800
X041550Y015800
X042550Y015800
X043550Y015800
X039680Y011300
X039680Y010180
X039670Y008920
X039800Y007050
X038800Y007050
X037800Y007050
X036800Y007050
X035800Y007050
X034800Y007050
X033800Y007050
X032800Y007050
X031800Y007050
X030800Y007050
X029800Y007050
X028070Y006420
X028070Y007670
X028070Y008920
X028070Y010180
X028050Y011430
X028050Y012680
X029800Y013050
X030800Y013050
X031800Y013050
X032800Y013050
X033800Y013050
X034800Y013050
X035800Y013050
X036800Y013050
X036920Y011300
X035920Y011300
X036920Y010180
X036920Y008920
X036430Y005680
X038420Y005680
X039780Y005680
X040800Y007050
X041800Y007050
X042800Y007050
X043800Y007050
X044800Y007050
X045800Y007050
X046800Y007050
X047800Y007050
X048800Y007050
X046550Y008800
X043800Y008800
X042930Y005680
X043300Y003300
X043300Y002300
X042300Y002300
X042300Y003300
X041300Y003300
X040300Y003300
X039300Y003300
X039300Y002300
X040300Y002300
X041300Y002300
X038300Y002300
X037300Y002300
X037300Y003300
X036300Y003300
X036300Y002300
X035300Y002300
X034300Y002300
X034300Y003300
X033300Y003300
X033300Y002300
X032300Y002300
X031300Y002300
X031300Y003300
X030300Y003300
X030300Y002300
X029300Y002300
X028300Y002300
X028300Y003300
X027300Y003300
X027300Y002300
X029300Y003300
X032300Y003300
X035300Y003300
X038300Y003300
X032770Y011300
X033170Y015420
X033170Y016430
X033170Y017420
X033170Y018430
X033170Y019420
X033170Y020420
X033170Y021430
X034800Y021430
X034800Y020420
X034800Y019420
X034800Y018430
X034800Y017420
X034800Y016430
X034800Y015420
X030180Y015420
X030180Y016430
X030180Y017420
X030180Y018430
X030180Y019420
X030180Y020420
X030180Y021430
X028420Y021670
X028420Y020670
X028420Y019680
X028420Y018670
X028420Y017680
X028420Y016670
X028420Y015670
X028420Y014680
X025420Y014680
X025420Y015670
X025420Y016670
X025420Y017680
X025420Y018670
X025420Y019680
X025420Y020670
X025420Y021670
X023680Y021670
X023680Y020670
X023680Y019680
X023680Y018670
X023680Y017680
X023680Y016670
X023680Y015670
X023680Y014680
X023680Y012680
X023680Y011670
X023680Y010670
X023680Y009680
X023680Y008680
X023680Y007670
X023680Y006670
X023680Y005420
X024930Y006420
X024930Y007670
X024930Y008920
X024930Y010180
X024900Y011430
X024900Y012680
X033170Y023420
X033170Y024420
X033170Y025420
X033170Y026430
X033170Y027430
X033170Y028420
X033170Y029420
X034670Y029420
X034670Y028420
X034670Y027430
X034670Y026430
X034670Y025420
X034670Y024420
X034670Y023420
X028930Y026670
X027680Y026820
X026670Y027680
X026670Y028680
X026670Y029670
X023680Y033550
X023570Y034800
X024420Y035050
X024280Y036050
X024280Y037050
X023700Y037680
X024420Y038050
X024280Y039050
X024280Y040050
X023320Y040300
X024420Y041050
X024280Y042050
X024280Y043050
X023320Y043300
X020180Y043300
X020180Y040300
X020550Y037680
X020420Y034800
X020530Y033550
X027170Y035050
X027430Y036050
X027430Y037050
X027170Y038050
X027430Y039050
X027430Y040050
X027170Y041050
X027430Y042050
X027430Y043050
X026300Y047930
X026300Y048930
X025300Y048930
X025300Y047930
X025300Y049920
X025300Y050930
X026300Y050930
X026300Y051920
X025300Y051920
X025300Y052930
X025300Y053930
X026300Y053930
X026300Y054920
X025300Y054920
X025300Y055930
X025300Y056920
X026300Y056920
X026300Y057930
X025300Y057930
X025300Y058930
X025300Y059920
X026300Y059920
X026300Y060930
X025300Y060930
X025300Y061920
X025300Y062930
X026300Y062930
X026300Y063930
X025300Y063930
X026300Y061920
X026300Y058930
X026300Y055930
X026300Y052930
X026300Y049920
X023170Y048800
X022170Y048670
X022170Y051430
X021180Y051520
X023170Y051550
X022430Y053300
X021180Y054680
X020300Y055550
X020300Y056800
X021300Y056800
X022550Y056920
X022430Y055300
X019300Y056800
X018300Y056800
X017300Y056800
X016300Y056800
X015300Y056800
X014300Y056800
X013300Y056800
X012300Y056800
X012550Y055550
X013550Y055550
X016700Y055550
X018300Y055550
X018300Y059800
X017300Y059800
X016300Y059800
X015300Y059800
X014300Y059800
X013300Y059800
X012300Y059800
X012800Y061050
X012800Y062930
X014550Y063050
X016300Y063550
X017680Y063550
X019170Y064300
X020670Y064300
X020670Y062300
X019170Y062300
X018900Y060930
X019300Y059800
X020300Y059800
X021300Y059800
X022550Y060070
X022050Y060930
X017680Y061550
X016300Y061550
X014800Y061050
X014550Y065050
X012800Y064920
X007180Y064050
X005170Y064050
X005930Y060430
X006420Y058180
X008550Y058430
X009800Y059700
X009070Y060430
X009800Y056550
X009400Y055550
X008550Y056430
X006420Y055430
X006800Y052800
X004800Y052800
X005170Y050680
X003180Y050070
X002050Y050070
X002050Y046920
X003180Y046920
X005170Y047930
X005420Y045570
X008050Y045050
X008430Y046550
X008920Y047650
X010180Y047680
X011570Y046550
X012050Y045700
X012050Y042550
X010670Y041430
X008680Y041430
X007320Y041550
X008050Y043050
X005420Y042420
X004170Y041550
X007670Y047800
X007670Y050950
X008920Y050800
X010180Y050820
X015550Y043170
X015550Y040030
X043170Y035670
X044180Y035670
X044180Y034670
X043170Y034670
X045180Y034670
X046170Y034670
X046170Y035670
X045180Y035670
X047180Y035670
X048170Y035670
X048170Y034670
X047180Y034670
X049180Y034670
X049180Y035670
X047700Y028680
X047700Y027300
X055430Y047150
X056680Y047180
X056680Y050320
X055430Y050300
X054050Y050300
X066050Y046520
X067180Y046520
X067050Y045180
X067050Y043170
X072180Y046300
X073170Y046300
X074180Y046300
X083180Y046680
X083180Y045670
X084180Y045670
X084180Y044680
X083180Y044680
X084180Y046680
X084180Y047680
X084180Y048670
X083180Y048670
X083180Y047680
X083180Y049680
X083180Y050670
X084180Y050670
X084180Y051680
X083180Y051680
X083180Y052680
X083180Y053670
X084180Y053670
X084180Y054680
X083180Y054680
X083180Y055670
X083180Y056680
X084180Y056680
X084180Y057680
X083180Y057680
X083180Y058670
X083180Y059680
X084180Y059680
X084180Y060670
X083180Y060670
X084180Y058670
X084180Y055670
X084180Y052680
X084180Y049680
X079180Y010180
X079180Y008180
X083420Y007800
X085430Y007800
X085180Y005450
X084050Y005450
X082930Y005420
X082930Y002280
X084050Y002300
X085180Y002300
X073170Y009050
X071170Y009050
X051680Y006030
X051680Y004800
X051680Y001650
T03
X001050Y001170
X001050Y002170
X002050Y002170
X002050Y003180
X001050Y003180
X001050Y004170
X001050Y005170
X001050Y006180
X002050Y006180
X002050Y007180
X002050Y008180
X002050Y009170
X001050Y009170
X001050Y008180
X001050Y007180
X003050Y007180
X004050Y007180
X004050Y008180
X005050Y008180
X005050Y009170
X004050Y009170
X004050Y010180
X004050Y011170
X005050Y011170
X005050Y012180
X004050Y012180
X004050Y013170
X004050Y014170
X005050Y014170
X005050Y015180
X004050Y015180
X004050Y016170
X004050Y017180
X005050Y017180
X005050Y018170
X004050Y018170
X004050Y019170
X004050Y020180
X005050Y020180
X005050Y021180
X004050Y021180
X004050Y022170
X004050Y023170
X005050Y023170
X005050Y024170
X004050Y024170
X004050Y025180
X004050Y026180
X005050Y026180
X005050Y025180
X006050Y025180
X007050Y025180
X007050Y024170
X008050Y024170
X008050Y023170
X007050Y023170
X007050Y022170
X007050Y021180
X008050Y021180
X008050Y020180
X007050Y020180
X007050Y019170
X007050Y018170
X008050Y018170
X008050Y017180
X007050Y017180
X007050Y016170
X007050Y015180
X008050Y015180
X008050Y014170
X007050Y014170
X007050Y013170
X007050Y012180
X008050Y012180
X008050Y011170
X007050Y011170
X007050Y010180
X007050Y009170
X008050Y009170
X008050Y008180
X007050Y008180
X007050Y007180
X007050Y006180
X008050Y006180
X008050Y005170
X007050Y005170
X007050Y004170
X007050Y003180
X008050Y003180
X008050Y002170
X007050Y002170
X007050Y001170
X008050Y001170
X009050Y001170
X010050Y001170
X010050Y002170
X011050Y002170
X011050Y003180
X010050Y003180
X010050Y004170
X010050Y005170
X011050Y005170
X011050Y006180
X010050Y006180
X010050Y007180
X010050Y008180
X011050Y008180
X011050Y009170
X010050Y009170
X010050Y010180
X010050Y011170
X011050Y011170
X011050Y012180
X010050Y012180
X010050Y013170
X010050Y014170
X011050Y014170
X011050Y015180
X010050Y015180
X010050Y016170
X010050Y017180
X010050Y018170
X010050Y019170
X010050Y020180
X010050Y021180
X010050Y022170
X010050Y023170
X010050Y024170
X010050Y025180
X010050Y026180
X009050Y026180
X008050Y026180
X007050Y026180
X006050Y026180
X006050Y027170
X005050Y027170
X004050Y027170
X003050Y027170
X003050Y026180
X002050Y026180
X001050Y026180
X001050Y025180
X001050Y024170
X002050Y024170
X002050Y023170
X001050Y023170
X001050Y022170
X001050Y021180
X002050Y021180
X002050Y020180
X001050Y020180
X001050Y019170
X001050Y018170
X002050Y018170
X002050Y017180
X001050Y017180
X001050Y016170
X001050Y015180
X002050Y015180
X002050Y014170
X001050Y014170
X001050Y013170
X001050Y012180
X002050Y012180
X002050Y011170
X001050Y011170
X001050Y010180
X002050Y010180
X003050Y010180
X003050Y009170
X003050Y008180
X004030Y006180
X005050Y006180
X005050Y005170
X005050Y004170
X005050Y003180
X005050Y002170
X004050Y002170
X004050Y003180
X003050Y002170
X003050Y001170
X002050Y001170
X004050Y001170
X005050Y001170
X006050Y001170
X006050Y002170
X006050Y003180
X006050Y004170
X006050Y005170
X006050Y006180
X006050Y007180
X005050Y007180
X006050Y008180
X006050Y009170
X006050Y010180
X005050Y010180
X006050Y011170
X006050Y012180
X006050Y013170
X005050Y013170
X006050Y014170
X006050Y015180
X006050Y016170
X005050Y016170
X006050Y017180
X006050Y018170
X006050Y019170
X005050Y019170
X006050Y020180
X006050Y021180
X006050Y022170
X005050Y022170
X006050Y023170
X006050Y024170
X008050Y025180
X009050Y025180
X009050Y024170
X009050Y023170
X009050Y022170
X008050Y022170
X009050Y021180
X009050Y020180
X009050Y019170
X008050Y019170
X009050Y018170
X009050Y017180
X009050Y016170
X008050Y016170
X009050Y015180
X009050Y014170
X009050Y013170
X008050Y013170
X009050Y012180
X009050Y011170
X009050Y010180
X008050Y010180
X009050Y009170
X009050Y008180
X009050Y007180
X008050Y007180
X009050Y006180
X009050Y005170
X009050Y004170
X008050Y004170
X009050Y003180
X009050Y002170
X011050Y001170
X012050Y001170
X013050Y001170
X013050Y002170
X014050Y002170
X014050Y003180
X013050Y003180
X013050Y004170
X013050Y005170
X014050Y005170
X014050Y006180
X013050Y006180
X013050Y007180
X013050Y008180
X014050Y008180
X014050Y009170
X013050Y009170
X013050Y010180
X013050Y011170
X014050Y011170
X014050Y012180
X013050Y012180
X013050Y013170
X013050Y014170
X014050Y014170
X014050Y013170
X015050Y013170
X016050Y013170
X016050Y012180
X017050Y012180
X017050Y011170
X016050Y011170
X016050Y010180
X016050Y009170
X017050Y009170
X017050Y008180
X016050Y008180
X016050Y007180
X016050Y006180
X017050Y006180
X017050Y005170
X016050Y005170
X016050Y004170
X016050Y003180
X017050Y003180
X017050Y002170
X016050Y002170
X016050Y001170
X017050Y001170
X017920Y001680
X017050Y004170
X015050Y004170
X014050Y004170
X015050Y003180
X015050Y002170
X015050Y001170
X014050Y001170
X012050Y002170
X012050Y003180
X012050Y004170
X011050Y004170
X012050Y005170
X012050Y006180
X012050Y007180
X011050Y007180
X012050Y008180
X012050Y009170
X012050Y010180
X011050Y010180
X012050Y011170
X012050Y012180
X012050Y013170
X011050Y013170
X012050Y014170
X012050Y015180
X013050Y015180
X014050Y015180
X015050Y015180
X015050Y014170
X016050Y014170
X017050Y014170
X017050Y013170
X017050Y015180
X016050Y015180
X015560Y017700
X016560Y017700
X017050Y019170
X016050Y019170
X016050Y020180
X016050Y021180
X016050Y022170
X017050Y022170
X016050Y023170
X016050Y024170
X016050Y025180
X015550Y026180
X016050Y027170
X016050Y028170
X017030Y028170
X017050Y029160
X016070Y029160
X016070Y030160
X016070Y031160
X017050Y031160
X016070Y032160
X016070Y033170
X017050Y033170
X016550Y034170
X018670Y034170
X019550Y035420
X018670Y036430
X021180Y036050
X022170Y036050
X023170Y036050
X024930Y034050
X025920Y034050
X026920Y034050
X026670Y032170
X028300Y032170
X029170Y031180
X033800Y029930
X034050Y030920
X038420Y030800
X039170Y029670
X038530Y028550
X038800Y027450
X039930Y027170
X041050Y027170
X041680Y028550
X041050Y024420
X039930Y024420
X038800Y024300
X041050Y022300
X042050Y021300
X042050Y019300
X042050Y017300
X041050Y016300
X041780Y011300
X041780Y010050
X044920Y010050
X044920Y011300
X047050Y016300
X046050Y017300
X047050Y022300
X049680Y023080
X052180Y029670
X051680Y035180
X050670Y036180
X049680Y035180
X041680Y036180
X041680Y038170
X038420Y038680
X038420Y040670
X041680Y045180
X040670Y046170
X038680Y049550
X034300Y048800
X033800Y049550
X028170Y050180
X027300Y048800
X028170Y054920
X028170Y059180
X027300Y059800
X028170Y060800
X027300Y061920
X033550Y059800
X034420Y060800
X038550Y060050
X039800Y060800
X040050Y063430
X041050Y063430
X042050Y063430
X043050Y063430
X044050Y063430
X045050Y063430
X046050Y063430
X047050Y063430
X048050Y063430
X049050Y063430
X050050Y063430
X051050Y063430
X052050Y063430
X053050Y063430
X054050Y063430
X055050Y063430
X056050Y063430
X057050Y063430
X058050Y063430
X059050Y063430
X060050Y063430
X061050Y063430
X062050Y063430
X063050Y063430
X064050Y063430
X065050Y063430
X066050Y063430
X067050Y063430
X068050Y063430
X069050Y063430
X077050Y062050
X077180Y060670
X080180Y060180
X080180Y059180
X080180Y058170
X080180Y057180
X080180Y056170
X080180Y055180
X080180Y054180
X080180Y053170
X080180Y050670
X080180Y049680
X080180Y048670
X080180Y047680
X080180Y046680
X080180Y045670
X080180Y044680
X080180Y043670
X080180Y042680
X083180Y040180
X083180Y039170
X083180Y038170
X083180Y037170
X083180Y036180
X083180Y035180
X083180Y034170
X083180Y033170
X083180Y032170
X083180Y031180
X083180Y030180
X083180Y029170
X083180Y028170
X083180Y027170
X083180Y026180
X083180Y025180
X083180Y024170
X083180Y023170
X083180Y022170
X083180Y021180
X083180Y020180
X083180Y019170
X083180Y018170
X083180Y017180
X083180Y016170
X083180Y015180
X083180Y014170
X083180Y013170
X083180Y012180
X083180Y011170
X083180Y010180
X081430Y010180
X081430Y009170
X081430Y008180
X080300Y008180
X080300Y009170
X080300Y010180
X077180Y010180
X077180Y011170
X077180Y012180
X077180Y013170
X077180Y014170
X077180Y015180
X077180Y016170
X077180Y017180
X077180Y018170
X077180Y019170
X077180Y020180
X077180Y021180
X077180Y022170
X077180Y023170
X077180Y024170
X077180Y025180
X077180Y026180
X077180Y027170
X077180Y028170
X077180Y029170
X077180Y030180
X077180Y031180
X077180Y032170
X077180Y033170
X077180Y034170
X077180Y035180
X077180Y036180
X077180Y037170
X077180Y038170
X077180Y039170
X077180Y040180
X075180Y040180
X075180Y039170
X075180Y038170
X075180Y037170
X075180Y036180
X075180Y035180
X075180Y034170
X075180Y033170
X075180Y032170
X075180Y031180
X075180Y030180
X075180Y029170
X075180Y028170
X075180Y027170
X075180Y026180
X075180Y025180
X075180Y024170
X075180Y023170
X075180Y022170
X075180Y021180
X075180Y020180
X075180Y019170
X075180Y018170
X075180Y017180
X075180Y016170
X075180Y015180
X075180Y014170
X075180Y013170
X075180Y012180
X075180Y011170
X075180Y010180
X072180Y011170
X072180Y013170
X069180Y013170
X069180Y012180
X069180Y011170
X069180Y010180
X067180Y010180
X067180Y011170
X067180Y012180
X067180Y013170
X067180Y014170
X067180Y015180
X067180Y016170
X067180Y017180
X067180Y018170
X067180Y019170
X067180Y020180
X067180Y021180
X067180Y022170
X067180Y023170
X067180Y024170
X067180Y025180
X067180Y026180
X067180Y027170
X067180Y028170
X067180Y029170
X067180Y030180
X067180Y031180
X067180Y032170
X067180Y033170
X067180Y034170
X067180Y035180
X067180Y036180
X067180Y037170
X067180Y038170
X067180Y039170
X067180Y040180
X066050Y040800
X069180Y040180
X069180Y039170
X069180Y038170
X069180Y037170
X069180Y036180
X069180Y035180
X069180Y034170
X069180Y033170
X069180Y032170
X069180Y031180
X069180Y030180
X069180Y029170
X069180Y028170
X069180Y027170
X069180Y026180
X069180Y025180
X069180Y024170
X069180Y023170
X069180Y022170
X069180Y021180
X069180Y020180
X069180Y019170
X069180Y018170
X069180Y017180
X069180Y016170
X069180Y015180
X069180Y014170
X065300Y013300
X065300Y009050
X057300Y012180
X055550Y012800
X051280Y015770
X056680Y022170
X072180Y027170
X072180Y028170
X072180Y029170
X072180Y030180
X072180Y031180
X072180Y032170
X072180Y033170
X072180Y034170
X072180Y035180
X066050Y036550
X056920Y040670
X055930Y040670
X055930Y043820
X056920Y043820
X050670Y043170
X050670Y045180
X052300Y050300
X052300Y051550
X047930Y051550
X047930Y050300
X044680Y050300
X043930Y050930
X043170Y059800
X044180Y060800
X047680Y059800
X048050Y060800
X052420Y059800
X053170Y060800
X056800Y059800
X058050Y060800
X061050Y060800
X061430Y059800
X061430Y051550
X060430Y050300
X063170Y050300
X066050Y050300
X065800Y051550
X073050Y051050
X074180Y050430
X073670Y044550
X072680Y044550
X078550Y038170
X085180Y038170
X085180Y039170
X085180Y040180
X085800Y042180
X084180Y042180
X085180Y037170
X085180Y036180
X085180Y035180
X085180Y034170
X085180Y033170
X085180Y032170
X085180Y031180
X085180Y030180
X085180Y029170
X085180Y028170
X085180Y027170
X085180Y026180
X085180Y025180
X085180Y024170
X085180Y023170
X085180Y022170
X085180Y021180
X085800Y020670
X085180Y020180
X085180Y019170
X085180Y018170
X085180Y017180
X085180Y016170
X085180Y015180
X085180Y014170
X085180Y013170
X085180Y012180
X085180Y011170
X085180Y010180
X084050Y007050
X084550Y006300
X083550Y006300
X082300Y006550
X077930Y006550
X077930Y003300
X057300Y001420
X035950Y010050
X035420Y008800
X033420Y008800
X032800Y010050
X024800Y014050
X024050Y013300
X019800Y012070
X019550Y013690
X018670Y014680
X015050Y012180
X015050Y011170
X015050Y010180
X014050Y010180
X015050Y009170
X015050Y008180
X015050Y007180
X014050Y007180
X015050Y006180
X015050Y005170
X017050Y007180
X018670Y006670
X019800Y008920
X017050Y010180
X013530Y017710
X012530Y017710
X012050Y019170
X013050Y019170
X013050Y020180
X013050Y021180
X013050Y022170
X013050Y023170
X013050Y024170
X013050Y025180
X013550Y026180
X013050Y027170
X013050Y028170
X013050Y029170
X013050Y030180
X013050Y031180
X013050Y032170
X013050Y033170
X012050Y033170
X013550Y034170
X012050Y030180
X012050Y029170
X010050Y027170
X009050Y027170
X008050Y027170
X007050Y027170
X003050Y025180
X002050Y025180
X003050Y024170
X003050Y023170
X003050Y022170
X002050Y022170
X003050Y021180
X003050Y020180
X003050Y019170
X002050Y019170
X003050Y018170
X003050Y017180
X003050Y016170
X002050Y016170
X003050Y015180
X003050Y014170
X003050Y013170
X002050Y013170
X003050Y012180
X003050Y011170
X012050Y022170
X012050Y026180
X018670Y023050
X019550Y022300
X018670Y031180
X019550Y032170
X021180Y039050
X022170Y039050
X023170Y039050
X023170Y042050
X022170Y042050
X021180Y042050
X018550Y042300
X018550Y043300
X016800Y043200
X018550Y041300
X018550Y040300
X016800Y040050
X013430Y040800
X012420Y040800
X010800Y043170
X010800Y044180
X010800Y045180
X009430Y045180
X009430Y044180
X009430Y043170
X006670Y043050
X006670Y045050
X006300Y046680
X007300Y046680
X006420Y048300
X006420Y049300
X006420Y050300
X004170Y050860
X002920Y051920
X001930Y051920
X002170Y053800
X001170Y053800
X001170Y055300
X001170Y056300
X001170Y057300
X002680Y057300
X002680Y056300
X002680Y055300
X004170Y055300
X004170Y056300
X004170Y057300
X005420Y057300
X005420Y056300
X005420Y055300
X007430Y055360
X009300Y053670
X009300Y052680
X011690Y050660
X012690Y051660
X012920Y053170
X012920Y054180
X015800Y054180
X015800Y053170
X016070Y051660
X015070Y050660
X016070Y049660
X018430Y050670
X019420Y051680
X018800Y053050
X018800Y054050
X019420Y049680
X012690Y049660
X010930Y057050
X010930Y059050
X011170Y060800
X010180Y060800
X007430Y059300
X003800Y063550
X003800Y064550
X003800Y065550
X002050Y065550
X002050Y064550
X002050Y063550
X003180Y053800
X004170Y046920
X005300Y046680
X004170Y044920
X004170Y043930
X004170Y042930
X002920Y041550
X001930Y041550
X004800Y040430
X006800Y040430
X007940Y035410
X002050Y027170
X001050Y027170
X001800Y044680
X002800Y044680
X028300Y038050
X029170Y038680
X029170Y042180
X033930Y025920
X033930Y023930
X034050Y022920
X033930Y021920
X029550Y022800
X029300Y021670
X056920Y051550
X040050Y066680
X080180Y061170
X085680Y066680
T04
X009930Y062420
X009930Y065430
T05
X002550Y033180
X004550Y033180
X006550Y033180
X008550Y033180
T06
X001550Y037800
X003110Y037800
X004670Y037800
X006230Y037800
X007790Y037800
X009340Y037800
X010900Y037800
X012460Y037800
X014020Y037800
X015580Y037800
X017140Y037800
X018700Y037800
T07
X043060Y018290
X045060Y018290
X045060Y020290
X043060Y020290
T08
X001550Y032180
X009550Y032180
T09
X003180Y004680
X049180Y004680
X080180Y004170
X080180Y064680
X031180Y064680
X003180Y060180
T10
X003550Y029180
X007550Y029180
T11
X044180Y038660
X048180Y038670
X048180Y042670
X044180Y042670
M30
